STARTFONT 2.1
FONT -FontForge-Hanalei-Book-R-Normal--24-240-72-72-P-121-ISO10646-1
SIZE 24 72 72
FONTBOUNDINGBOX 30 31 -1 -6
COMMENT "Generated by fontforge, http://fontforge.sourceforge.net"
COMMENT "Copyright (c) 2012 by Brian J. Bonislawsky DBA Astigmatic (AOETI) (astigma@astigmatic.com), with ReservedFont Name "Hanalei""
STARTPROPERTIES 39
FOUNDRY "FontForge"
FAMILY_NAME "Hanalei"
WEIGHT_NAME "Book"
SLANT "R"
SETWIDTH_NAME "Normal"
ADD_STYLE_NAME ""
PIXEL_SIZE 24
POINT_SIZE 240
RESOLUTION_X 72
RESOLUTION_Y 72
SPACING "P"
AVERAGE_WIDTH 121
CHARSET_REGISTRY "ISO10646"
CHARSET_ENCODING "1"
FONTNAME_REGISTRY ""
CHARSET_COLLECTIONS "ISO8859-2 ISO8859-9 ISO8859-4 ISO10646-1"
FONT_NAME "Hanalei-Regular"
FACE_NAME "Hanalei"
COPYRIGHT "Copyright (c) 2012 by Brian J. Bonislawsky DBA Astigmatic (AOETI) (astigma@astigmatic.com), with ReservedFont Name "Hanalei""
FONT_VERSION "1.000"
FONT_ASCENT 19
FONT_DESCENT 5
UNDERLINE_POSITION -3
UNDERLINE_THICKNESS 1
X_HEIGHT 15
CAP_HEIGHT 15
RAW_ASCENT 799
RAW_DESCENT 200
NORM_SPACE 5
RELATIVE_WEIGHT 40
RELATIVE_SETWIDTH 50
SUPERSCRIPT_X 0
SUPERSCRIPT_Y 11
SUPERSCRIPT_SIZE 15
SUBSCRIPT_X 0
SUBSCRIPT_Y 3
SUBSCRIPT_SIZE 15
AVG_LOWERCASE_WIDTH 129
AVG_UPPERCASE_WIDTH 127
ENDPROPERTIES
CHARS 366
STARTCHAR space
ENCODING 32
SWIDTH 200 0
DWIDTH 5 0
BBX 1 1 0 0
BITMAP
00
ENDCHAR
STARTCHAR exclam
ENCODING 33
SWIDTH 257 0
DWIDTH 6 0
BBX 5 17 1 0
BITMAP
60
98
90
90
90
90
F0
90
90
90
90
90
40
60
90
90
F0
ENDCHAR
STARTCHAR quotedbl
ENCODING 34
SWIDTH 476 0
DWIDTH 11 0
BBX 10 10 1 8
BITMAP
6380
9440
9440
9440
F7C0
9440
9440
9440
9440
F780
ENDCHAR
STARTCHAR numbersign
ENCODING 35
SWIDTH 1076 0
DWIDTH 26 0
BBX 24 17 1 0
BITMAP
707132
8C8ADD
8C8A17
8C9219
8A8BF9
EEEA49
898A49
919249
88927F
989391
FF7A11
8C4BFE
925000
9231FC
911102
892902
F1F1FC
ENDCHAR
STARTCHAR dollar
ENCODING 36
SWIDTH 453 0
DWIDTH 11 0
BBX 9 22 1 -3
BITMAP
1C00
2200
2200
2500
2E80
3880
C880
8700
9C00
EC00
8A00
7180
1080
0C80
3B80
C880
8700
9C00
E400
2400
2400
1C00
ENDCHAR
STARTCHAR percent
ENCODING 37
SWIDTH 889 0
DWIDTH 21 0
BBX 20 17 1 0
BITMAP
780000
C43000
A24800
BD4800
AA5000
AA5000
F9B000
899400
8E9BE0
74AE30
01E9F0
012A90
012A90
012B90
024C90
014890
0087E0
ENDCHAR
STARTCHAR ampersand
ENCODING 38
SWIDTH 627 0
DWIDTH 15 0
BBX 15 18 0 0
BITMAP
0800
1FF8
1288
22F8
1348
1188
0B10
0CA0
18A0
1440
2244
46BA
8B22
8D22
951E
E488
8F90
70E0
ENDCHAR
STARTCHAR quotesingle
ENCODING 39
SWIDTH 246 0
DWIDTH 6 0
BBX 4 10 1 8
BITMAP
60
90
90
90
F0
90
90
90
90
F0
ENDCHAR
STARTCHAR parenleft
ENCODING 40
SWIDTH 387 0
DWIDTH 9 0
BBX 9 19 0 -1
BITMAP
0F00
0900
1100
1200
3200
2C00
4400
8800
8800
9000
F800
4400
2200
2E00
1100
1080
0880
0480
0780
ENDCHAR
STARTCHAR parenright
ENCODING 41
SWIDTH 386 0
DWIDTH 9 0
BBX 10 19 0 -1
BITMAP
3800
4800
4400
2200
2600
1900
1100
0880
0440
0440
0F80
0900
1100
2E00
4200
4400
8800
9000
7000
ENDCHAR
STARTCHAR asterisk
ENCODING 42
SWIDTH 517 0
DWIDTH 12 0
BBX 12 11 0 6
BITMAP
0F00
0500
4520
B7D0
8910
78E0
0980
1680
2540
2940
1880
ENDCHAR
STARTCHAR plus
ENCODING 43
SWIDTH 458 0
DWIDTH 11 0
BBX 9 10 1 3
BITMAP
1C00
2200
1200
FF80
8480
8480
FF80
1200
2200
1C00
ENDCHAR
STARTCHAR comma
ENCODING 44
SWIDTH 228 0
DWIDTH 5 0
BBX 6 6 -1 -3
BITMAP
18
24
44
88
90
70
ENDCHAR
STARTCHAR hyphen
ENCODING 45
SWIDTH 465 0
DWIDTH 11 0
BBX 10 4 1 6
BITMAP
FF80
8440
8440
FF80
ENDCHAR
STARTCHAR period
ENCODING 46
SWIDTH 202 0
DWIDTH 5 0
BBX 4 4 0 0
BITMAP
60
90
50
F0
ENDCHAR
STARTCHAR slash
ENCODING 47
SWIDTH 453 0
DWIDTH 11 0
BBX 11 16 0 0
BITMAP
03C0
0220
0440
0480
0E80
0980
0900
1100
1200
2A00
2600
2400
4400
8800
4800
3000
ENDCHAR
STARTCHAR zero
ENCODING 48
SWIDTH 646 0
DWIDTH 16 0
BBX 16 17 0 0
BITMAP
0700
04C0
08A0
1120
2B18
26B8
4444
A842
D821
8831
844A
46AC
2908
1A10
0C20
0440
0380
ENDCHAR
STARTCHAR one
ENCODING 49
SWIDTH 400 0
DWIDTH 10 0
BBX 9 17 0 0
BITMAP
0F00
1880
2880
C480
8880
9A80
6D80
0880
0880
0880
0880
0F80
0880
0880
0880
0880
0F80
ENDCHAR
STARTCHAR two
ENCODING 50
SWIDTH 502 0
DWIDTH 12 0
BBX 12 16 0 0
BITMAP
0F00
1280
2240
C620
8910
5120
21D0
0630
0A40
1180
2100
4200
47E0
AA20
9220
7FE0
ENDCHAR
STARTCHAR three
ENCODING 51
SWIDTH 456 0
DWIDTH 11 0
BBX 11 17 0 0
BITMAP
2000
5F00
4080
40C0
7D40
0880
1700
2D00
5200
5100
30C0
0DE0
0E40
7420
84C0
8700
7800
ENDCHAR
STARTCHAR four
ENCODING 52
SWIDTH 514 0
DWIDTH 12 0
BBX 12 17 0 0
BITMAP
02C0
0520
08A0
0920
1120
3AA0
2360
4620
8FE0
9110
9110
2DF0
1220
0220
0220
0220
03E0
ENDCHAR
STARTCHAR five
ENCODING 53
SWIDTH 500 0
DWIDTH 12 0
BBX 12 17 0 0
BITMAP
0040
7FA0
4A20
4AA0
4F40
4800
7C40
43A0
42E0
5B10
26A0
00A0
0120
7FE0
8430
8420
7FC0
ENDCHAR
STARTCHAR six
ENCODING 54
SWIDTH 520 0
DWIDTH 13 0
BBX 13 18 0 -1
BITMAP
0E00
1100
1100
1200
2200
3A00
2200
2500
24C0
4460
7698
45C8
4B30
8C30
8820
89C0
7200
0C00
ENDCHAR
STARTCHAR seven
ENCODING 55
SWIDTH 423 0
DWIDTH 10 0
BBX 10 17 0 0
BITMAP
4880
B740
8440
8440
7FC0
0480
0780
0880
0880
0900
1D00
1300
1200
1200
2200
2200
1C00
ENDCHAR
STARTCHAR eight
ENCODING 56
SWIDTH 527 0
DWIDTH 13 0
BBX 12 16 0 0
BITMAP
7FF0
4250
48B0
7790
2510
2620
1940
1140
1880
24C0
2540
4620
8F10
8910
5090
3FF0
ENDCHAR
STARTCHAR nine
ENCODING 57
SWIDTH 500 0
DWIDTH 12 0
BBX 12 17 0 0
BITMAP
0080
0F60
7450
8450
8590
9E20
EBA0
4620
2440
1480
0C80
0A80
0900
1100
1200
2200
1E00
ENDCHAR
STARTCHAR colon
ENCODING 58
SWIDTH 245 0
DWIDTH 6 0
BBX 4 12 1 0
BITMAP
F0
90
90
60
00
00
00
00
60
90
90
F0
ENDCHAR
STARTCHAR semicolon
ENCODING 59
SWIDTH 270 0
DWIDTH 6 0
BBX 6 15 0 -3
BITMAP
7C
28
24
18
00
00
00
00
00
38
44
48
90
90
E0
ENDCHAR
STARTCHAR less
ENCODING 60
SWIDTH 445 0
DWIDTH 11 0
BBX 9 13 1 2
BITMAP
0200
0480
1880
2980
CA00
8C00
9000
EC00
8600
C980
2080
1C80
0300
ENDCHAR
STARTCHAR equal
ENCODING 61
SWIDTH 484 0
DWIDTH 12 0
BBX 10 11 1 3
BITMAP
7F80
8440
8440
8040
7F80
0000
7F80
8440
8440
8040
7F80
ENDCHAR
STARTCHAR greater
ENCODING 62
SWIDTH 445 0
DWIDTH 11 0
BBX 9 13 1 2
BITMAP
6000
9000
8C00
8A00
7180
1080
0C80
1B80
3080
D180
8E00
9800
6000
ENDCHAR
STARTCHAR question
ENCODING 63
SWIDTH 455 0
DWIDTH 11 0
BBX 9 17 1 0
BITMAP
6000
9C00
8700
8480
F880
0E80
3180
2100
6600
5800
4800
4800
3000
3000
4800
4800
7800
ENDCHAR
STARTCHAR at
ENCODING 64
SWIDTH 812 0
DWIDTH 19 0
BBX 18 19 1 -1
BITMAP
200000
5FFE00
C22500
DDD900
B22500
97F680
D88C80
B7BC80
954C80
994B80
994A80
FFFE40
984640
944980
97FF80
9E0000
E58000
748000
0F8000
ENDCHAR
STARTCHAR A
ENCODING 65
SWIDTH 507 0
DWIDTH 12 0
BBX 13 17 0 0
BITMAP
0C00
1300
1180
1280
2280
3A80
2240
27C0
2640
4530
7748
4D08
4918
4BE0
8C90
8890
70E0
ENDCHAR
STARTCHAR B
ENCODING 66
SWIDTH 533 0
DWIDTH 13 0
BBX 12 19 1 -1
BITMAP
3000
4E00
C100
C2E0
BA10
9610
EBA0
8C60
9440
9380
92C0
EC20
9620
9D20
B4D0
C2E0
8300
CC00
3000
ENDCHAR
STARTCHAR C
ENCODING 67
SWIDTH 515 0
DWIDTH 12 0
BBX 12 18 0 -1
BITMAP
3F00
21F0
2110
2910
37F0
3400
4C00
4400
4400
4400
7400
4800
4AF0
8D10
8910
7970
4F80
3000
ENDCHAR
STARTCHAR D
ENCODING 68
SWIDTH 520 0
DWIDTH 12 0
BBX 12 17 1 0
BITMAP
7800
C400
C200
A100
9980
EA40
9620
9110
90A0
91D0
EC20
8A40
9980
9100
9200
8C00
FC00
ENDCHAR
STARTCHAR E
ENCODING 69
SWIDTH 490 0
DWIDTH 12 0
BBX 11 17 1 0
BITMAP
75C0
8A20
8A20
9220
9FC0
E800
8800
9700
9080
9080
EF00
9000
9E00
95C0
9420
8840
F7C0
ENDCHAR
STARTCHAR F
ENCODING 70
SWIDTH 475 0
DWIDTH 11 0
BBX 11 17 1 0
BITMAP
75C0
8A20
8A20
9220
9FC0
E800
8800
9700
9080
9080
EF00
9000
9000
9000
9000
8800
F000
ENDCHAR
STARTCHAR G
ENCODING 71
SWIDTH 557 0
DWIDTH 13 0
BBX 13 18 0 -1
BITMAP
3F00
21F0
2110
2910
37F0
3400
4C00
4470
4488
4448
7448
48F8
4A88
8D48
8948
7988
4F70
3000
ENDCHAR
STARTCHAR H
ENCODING 72
SWIDTH 611 0
DWIDTH 15 0
BBX 14 17 1 0
BITMAP
70F0
8908
8890
9090
9090
E8F0
9090
9090
9098
91E4
EE44
9448
95F0
9E90
9090
8910
F0F0
ENDCHAR
STARTCHAR I
ENCODING 73
SWIDTH 266 0
DWIDTH 6 0
BBX 5 17 1 0
BITMAP
70
88
88
90
90
E8
90
90
90
90
E8
90
90
90
90
88
F0
ENDCHAR
STARTCHAR J
ENCODING 74
SWIDTH 484 0
DWIDTH 12 0
BBX 11 18 0 -1
BITMAP
01C0
0220
0220
0120
0220
03E0
0220
0220
6220
9220
93E0
8E20
4E20
3220
2120
10A0
09C0
0600
ENDCHAR
STARTCHAR K
ENCODING 75
SWIDTH 541 0
DWIDTH 13 0
BBX 12 17 1 0
BITMAP
7040
88A0
8890
9110
9220
ED40
88C0
9080
9100
8A80
EA40
95C0
9A40
9220
9130
8920
F1E0
ENDCHAR
STARTCHAR L
ENCODING 76
SWIDTH 467 0
DWIDTH 11 0
BBX 11 17 1 0
BITMAP
7000
8800
8800
9000
9000
E800
9000
9000
9000
9000
E800
9000
9840
97A0
9420
8820
FFC0
ENDCHAR
STARTCHAR M
ENCODING 77
SWIDTH 733 0
DWIDTH 18 0
BBX 18 17 0 0
BITMAP
1C1C00
222200
232200
232500
252500
3D7D00
24C500
27C700
44C900
448900
767C80
4BCF80
4A5480
893480
892480
891440
71E780
ENDCHAR
STARTCHAR N
ENCODING 78
SWIDTH 598 0
DWIDTH 14 0
BBX 13 17 1 0
BITMAP
7070
8888
8C88
9490
9290
EEE8
8988
9190
8890
9890
EB68
9450
9250
9230
9230
8928
F1F0
ENDCHAR
STARTCHAR O
ENCODING 79
SWIDTH 612 0
DWIDTH 15 0
BBX 14 18 0 -1
BITMAP
3F00
21F8
2108
2908
37F8
3478
4C44
4448
4444
4444
747C
4844
49FC
8F04
8904
790C
4FF0
3000
ENDCHAR
STARTCHAR P
ENCODING 80
SWIDTH 513 0
DWIDTH 12 0
BBX 12 18 1 0
BITMAP
3000
4C00
C300
C2E0
F210
9C10
F3A0
8A60
9420
9AC0
9300
CA00
AC00
9800
9000
9000
9000
F000
ENDCHAR
STARTCHAR Q
ENCODING 81
SWIDTH 612 0
DWIDTH 15 0
BBX 14 20 0 -3
BITMAP
3F00
21F8
2108
2908
37F8
3478
4C44
4448
4444
4444
747C
4844
49FC
8F04
8904
790C
4FF0
3440
0440
07C0
ENDCHAR
STARTCHAR R
ENCODING 82
SWIDTH 532 0
DWIDTH 13 0
BBX 12 17 1 0
BITMAP
3800
C700
C1C0
F230
8C10
93A0
EA60
9420
9F40
9880
9480
FC40
8BC0
9220
9110
9110
F0E0
ENDCHAR
STARTCHAR S
ENCODING 83
SWIDTH 442 0
DWIDTH 11 0
BBX 11 17 0 0
BITMAP
0FC0
7420
7420
8BC0
4C00
4400
2A00
3200
1100
0900
0B80
0480
0440
7A20
8620
87C0
FC00
ENDCHAR
STARTCHAR T
ENCODING 84
SWIDTH 453 0
DWIDTH 11 0
BBX 11 17 0 0
BITMAP
FFC0
8420
8420
ABE0
5500
1100
1F00
1100
1100
1100
1100
1F00
1100
1100
1100
1100
1E00
ENDCHAR
STARTCHAR U
ENCODING 85
SWIDTH 583 0
DWIDTH 14 0
BBX 14 18 0 -1
BITMAP
3870
2488
2488
2488
4488
7CF8
4488
4848
4848
4848
7478
4848
49F8
4E08
8918
7974
4FF8
3000
ENDCHAR
STARTCHAR V
ENCODING 86
SWIDTH 506 0
DWIDTH 12 0
BBX 12 16 0 0
BITMAP
70E0
8890
8890
4910
49A0
7560
4520
4520
2640
23C0
3E40
2240
1480
1480
1480
1F80
ENDCHAR
STARTCHAR W
ENCODING 87
SWIDTH 735 0
DWIDTH 18 0
BBX 17 16 0 0
BITMAP
700780
91E480
892480
492480
4B9C80
7AFB80
469900
468900
244900
27F900
3C5700
24D200
14D200
18D200
18A200
1F1E00
ENDCHAR
STARTCHAR X
ENCODING 88
SWIDTH 483 0
DWIDTH 12 0
BBX 12 16 0 0
BITMAP
71C0
8920
8A20
4640
2640
3D80
2880
1100
1180
3B80
2640
4440
4A20
8910
9120
70C0
ENDCHAR
STARTCHAR Y
ENCODING 89
SWIDTH 484 0
DWIDTH 12 0
BBX 13 16 -1 0
BITMAP
7078
8848
8488
4290
2790
1950
1220
0A40
0440
0740
0440
0880
0900
1100
1900
0600
ENDCHAR
STARTCHAR Z
ENCODING 90
SWIDTH 458 0
DWIDTH 11 0
BBX 11 17 0 0
BITMAP
3FC0
4440
4420
4160
3EC0
0440
0B80
0880
1100
2200
3A00
2600
44C0
8F40
8C40
9440
7FC0
ENDCHAR
STARTCHAR bracketleft
ENCODING 91
SWIDTH 420 0
DWIDTH 10 0
BBX 10 20 0 -1
BITMAP
0080
1F40
2040
4840
4780
4800
4800
6800
5800
4800
4800
4800
4800
7800
4800
4800
4F80
8840
4840
3FC0
ENDCHAR
STARTCHAR backslash
ENCODING 92
SWIDTH 453 0
DWIDTH 11 0
BBX 10 16 0 0
BITMAP
7800
8800
4800
4400
2E00
3200
1200
1100
0900
0A80
0C80
0480
0440
0240
0240
0380
ENDCHAR
STARTCHAR bracketright
ENCODING 93
SWIDTH 420 0
DWIDTH 10 0
BBX 10 20 0 -1
BITMAP
4000
BC00
8300
8480
7880
0480
0480
0580
0640
0480
0480
0480
0480
0780
0480
0480
7C80
8440
8480
FF00
ENDCHAR
STARTCHAR asciicircum
ENCODING 94
SWIDTH 353 0
DWIDTH 8 0
BBX 7 6 1 10
BITMAP
30
48
54
94
B2
CE
ENDCHAR
STARTCHAR underscore
ENCODING 95
SWIDTH 499 0
DWIDTH 12 0
BBX 10 4 1 -6
BITMAP
FFC0
8440
8440
FFC0
ENDCHAR
STARTCHAR grave
ENCODING 96
SWIDTH 183 0
DWIDTH 4 0
BBX 4 5 0 18
BITMAP
E0
90
50
50
30
ENDCHAR
STARTCHAR a
ENCODING 97
SWIDTH 507 0
DWIDTH 12 0
BBX 13 17 0 0
BITMAP
0C00
1300
1180
1280
2280
3A80
2240
27C0
2640
4530
7748
4D08
4918
4BE0
8C90
8890
70E0
ENDCHAR
STARTCHAR b
ENCODING 98
SWIDTH 533 0
DWIDTH 13 0
BBX 12 19 1 -1
BITMAP
3000
4E00
C100
C2E0
BA10
9610
EBA0
8C60
9440
9380
92C0
EC20
9620
9D20
B4D0
C2E0
8300
CC00
3000
ENDCHAR
STARTCHAR c
ENCODING 99
SWIDTH 515 0
DWIDTH 12 0
BBX 12 18 0 -1
BITMAP
3F00
21F0
2110
2910
37F0
3400
4C00
4400
4400
4400
7400
4800
4AF0
8D10
8910
7970
4F80
3000
ENDCHAR
STARTCHAR d
ENCODING 100
SWIDTH 520 0
DWIDTH 12 0
BBX 12 17 1 0
BITMAP
7800
C400
C200
A100
9980
EA40
9620
9110
90A0
91D0
EC20
8A40
9980
9100
9200
8C00
FC00
ENDCHAR
STARTCHAR e
ENCODING 101
SWIDTH 490 0
DWIDTH 12 0
BBX 11 17 1 0
BITMAP
75C0
8A20
8A20
9220
9FC0
E800
8800
9700
9080
9080
EF00
9000
9E00
95C0
9420
8840
F7C0
ENDCHAR
STARTCHAR f
ENCODING 102
SWIDTH 475 0
DWIDTH 11 0
BBX 11 17 1 0
BITMAP
75C0
8A20
8A20
9220
9FC0
E800
8800
9700
9080
9080
EF00
9000
9000
9000
9000
8800
F000
ENDCHAR
STARTCHAR g
ENCODING 103
SWIDTH 557 0
DWIDTH 13 0
BBX 13 18 0 -1
BITMAP
3F00
21F0
2110
2910
37F0
3400
4C00
4470
4488
4448
7448
48F8
4A88
8D48
8948
7988
4F70
3000
ENDCHAR
STARTCHAR h
ENCODING 104
SWIDTH 611 0
DWIDTH 15 0
BBX 14 17 1 0
BITMAP
70F0
8908
8890
9090
9090
E8F0
9090
9090
9098
91E4
EE44
9448
95F0
9E90
9090
8910
F0F0
ENDCHAR
STARTCHAR i
ENCODING 105
SWIDTH 266 0
DWIDTH 6 0
BBX 5 17 1 0
BITMAP
70
88
88
90
90
E8
90
90
90
90
E8
90
90
90
90
88
F0
ENDCHAR
STARTCHAR j
ENCODING 106
SWIDTH 482 0
DWIDTH 12 0
BBX 11 18 0 -1
BITMAP
01C0
0220
0220
0120
0220
03E0
0220
0220
6220
9220
93E0
8E20
4E20
3220
2120
10A0
09C0
0600
ENDCHAR
STARTCHAR k
ENCODING 107
SWIDTH 541 0
DWIDTH 13 0
BBX 12 17 1 0
BITMAP
7040
88A0
8890
9110
9220
ED40
88C0
9080
9100
8A80
EA40
95C0
9A40
9220
9130
8920
F1E0
ENDCHAR
STARTCHAR l
ENCODING 108
SWIDTH 467 0
DWIDTH 11 0
BBX 11 17 1 0
BITMAP
7000
8800
8800
9000
9000
E800
9000
9000
9000
9000
E800
9000
9840
97A0
9420
8820
FFC0
ENDCHAR
STARTCHAR m
ENCODING 109
SWIDTH 733 0
DWIDTH 18 0
BBX 18 17 0 0
BITMAP
1C1C00
222200
232200
232500
252500
3D7D00
24C500
27C700
44C900
448900
767C80
4BCF80
4A5480
893480
892480
891440
71E780
ENDCHAR
STARTCHAR n
ENCODING 110
SWIDTH 598 0
DWIDTH 14 0
BBX 13 17 1 0
BITMAP
7070
8888
8C88
9490
9290
EEE8
8988
9190
8890
9890
EB68
9450
9250
9230
9230
8928
F1F0
ENDCHAR
STARTCHAR o
ENCODING 111
SWIDTH 612 0
DWIDTH 15 0
BBX 14 18 0 -1
BITMAP
3F00
21F8
2108
2908
37F8
3478
4C44
4448
4444
4444
747C
4844
49FC
8F04
8904
790C
4FF0
3000
ENDCHAR
STARTCHAR p
ENCODING 112
SWIDTH 513 0
DWIDTH 12 0
BBX 12 18 1 0
BITMAP
3000
4C00
C300
C2E0
F210
9C10
F3A0
8A60
9420
9AC0
9300
CA00
AC00
9800
9000
9000
9000
F000
ENDCHAR
STARTCHAR q
ENCODING 113
SWIDTH 612 0
DWIDTH 15 0
BBX 14 20 0 -3
BITMAP
3F00
21F8
2108
2908
37F8
3478
4C44
4448
4444
4444
747C
4844
49FC
8F04
8904
790C
4FF0
3440
0440
07C0
ENDCHAR
STARTCHAR r
ENCODING 114
SWIDTH 532 0
DWIDTH 13 0
BBX 12 17 1 0
BITMAP
3800
C700
C1C0
F230
8C10
93A0
EA60
9420
9F40
9880
9480
FC40
8BC0
9220
9110
9110
F0E0
ENDCHAR
STARTCHAR s
ENCODING 115
SWIDTH 442 0
DWIDTH 11 0
BBX 11 17 0 0
BITMAP
0FC0
7420
7420
8BC0
4C00
4400
2A00
3200
1100
0900
0B80
0480
0440
7A20
8620
87C0
FC00
ENDCHAR
STARTCHAR t
ENCODING 116
SWIDTH 453 0
DWIDTH 11 0
BBX 11 17 0 0
BITMAP
FFC0
8420
8420
ABE0
5500
1100
1F00
1100
1100
1100
1100
1F00
1100
1100
1100
1100
1E00
ENDCHAR
STARTCHAR u
ENCODING 117
SWIDTH 583 0
DWIDTH 14 0
BBX 14 18 0 -1
BITMAP
3870
2488
2488
2488
4488
7CF8
4488
4848
4848
4848
7478
4848
49F8
4E08
8918
7974
4FF8
3000
ENDCHAR
STARTCHAR v
ENCODING 118
SWIDTH 506 0
DWIDTH 12 0
BBX 12 16 0 0
BITMAP
70E0
8890
8890
4910
49A0
7560
4520
4520
2640
23C0
3E40
2240
1480
1480
1480
1F80
ENDCHAR
STARTCHAR w
ENCODING 119
SWIDTH 735 0
DWIDTH 18 0
BBX 17 16 0 0
BITMAP
700780
91E480
892480
492480
4B9C80
7AFB80
469900
468900
244900
27F900
3C5700
24D200
14D200
18D200
18A200
1F1E00
ENDCHAR
STARTCHAR x
ENCODING 120
SWIDTH 483 0
DWIDTH 12 0
BBX 12 16 0 0
BITMAP
71C0
8920
8A20
4640
2640
3D80
2880
1100
1180
3B80
2640
4440
4A20
8910
9120
70C0
ENDCHAR
STARTCHAR y
ENCODING 121
SWIDTH 484 0
DWIDTH 12 0
BBX 13 16 -1 0
BITMAP
7078
8848
8488
4290
2790
1950
1220
0A40
0440
0740
0440
0880
0900
1100
1900
0600
ENDCHAR
STARTCHAR z
ENCODING 122
SWIDTH 458 0
DWIDTH 11 0
BBX 11 17 0 0
BITMAP
3FC0
4440
4420
4160
3EC0
0440
0B80
0880
1100
2200
3A00
2600
44C0
8F40
8C40
9440
7FC0
ENDCHAR
STARTCHAR braceleft
ENCODING 123
SWIDTH 473 0
DWIDTH 11 0
BBX 11 20 0 -2
BITMAP
0DE0
1220
2220
11C0
1700
0900
0900
7E80
8280
8100
FE80
0880
1900
1500
1200
2300
22E0
2220
1EA0
0040
ENDCHAR
STARTCHAR bar
ENCODING 124
SWIDTH 263 0
DWIDTH 6 0
BBX 5 19 1 -1
BITMAP
F0
88
90
90
90
90
F0
90
90
90
90
E8
88
90
90
90
90
88
F0
ENDCHAR
STARTCHAR braceright
ENCODING 125
SWIDTH 473 0
DWIDTH 11 0
BBX 11 20 0 -2
BITMAP
7A00
8580
8880
7900
1500
1300
1100
27E0
2820
1820
2FE0
1200
1100
1700
0900
1880
E440
8480
9F00
6000
ENDCHAR
STARTCHAR asciitilde
ENCODING 126
SWIDTH 456 0
DWIDTH 11 0
BBX 9 6 1 6
BITMAP
3B80
4A80
5480
9500
AB00
CE00
ENDCHAR
STARTCHAR nonbreakingspace
ENCODING 160
SWIDTH 200 0
DWIDTH 5 0
BBX 1 1 0 0
BITMAP
00
ENDCHAR
STARTCHAR exclamdown
ENCODING 161
SWIDTH 259 0
DWIDTH 6 0
BBX 4 17 1 0
BITMAP
60
90
90
D0
20
60
90
90
90
90
90
F0
90
90
90
90
F0
ENDCHAR
STARTCHAR cent
ENCODING 162
SWIDTH 480 0
DWIDTH 12 0
BBX 11 22 0 -3
BITMAP
0700
0880
0900
09C0
0B20
1E20
6220
A0C0
6700
5800
7800
8800
4800
4C00
8B80
4A60
3220
0E20
09C0
0900
0900
0F00
ENDCHAR
STARTCHAR sterling
ENCODING 163
SWIDTH 594 0
DWIDTH 14 0
BBX 14 17 0 0
BITMAP
0200
0580
1870
0810
0E10
09F0
1D00
73C0
9120
9120
71E0
1F00
11D8
11A4
1184
1184
0FF8
ENDCHAR
STARTCHAR currency
ENCODING 164
SWIDTH 640 0
DWIDTH 15 0
BBX 14 14 1 2
BITMAP
6010
9728
95C4
8A48
5A30
2738
42C8
8484
4B48
7130
9128
8944
96A4
6390
ENDCHAR
STARTCHAR yen
ENCODING 165
SWIDTH 575 0
DWIDTH 14 0
BBX 13 16 0 0
BITMAP
3070
4848
8888
4490
2790
1950
1120
1A20
25D0
2110
2110
3FF0
0880
1100
1100
0F00
ENDCHAR
STARTCHAR brokenbar
ENCODING 166
SWIDTH 258 0
DWIDTH 6 0
BBX 4 22 1 -3
BITMAP
70
90
90
90
F0
90
90
90
90
F0
00
60
90
90
90
90
F0
90
90
90
90
60
ENDCHAR
STARTCHAR section
ENCODING 167
SWIDTH 474 0
DWIDTH 11 0
BBX 10 18 1 -1
BITMAP
7F80
8840
C440
B380
8E00
8980
6B80
5E40
9480
9480
9B00
E880
2040
FE80
8540
8480
BF80
4000
ENDCHAR
STARTCHAR dieresis
ENCODING 168
SWIDTH 351 0
DWIDTH 8 0
BBX 8 4 0 18
BITMAP
67
99
95
77
ENDCHAR
STARTCHAR copyright
ENCODING 169
SWIDTH 719 0
DWIDTH 17 0
BBX 16 18 1 0
BITMAP
2000
5FFE
822A
DFF9
A00A
A7CA
D42D
97C9
A60A
A60A
960A
F5ED
A62A
A5CA
A04A
9FF5
E442
7FFC
ENDCHAR
STARTCHAR ordfeminine
ENCODING 170
SWIDTH 455 0
DWIDTH 11 0
BBX 11 17 0 0
BITMAP
0B00
1C80
1880
2880
2480
4440
75C0
4440
7E40
C220
AE20
9120
60C0
3F80
4080
4080
3F80
ENDCHAR
STARTCHAR guillemotleft
ENCODING 171
SWIDTH 689 0
DWIDTH 17 0
BBX 15 11 1 3
BITMAP
0C0C
1212
6262
8684
8908
9090
E968
8484
6262
1212
0C0C
ENDCHAR
STARTCHAR logicalnot
ENCODING 172
SWIDTH 591 0
DWIDTH 14 0
BBX 13 9 1 1
BITMAP
FFE0
8270
8288
B988
4690
0090
0090
0090
0070
ENDCHAR
STARTCHAR uni00AD
ENCODING 173
SWIDTH 465 0
DWIDTH 11 0
BBX 10 4 1 6
BITMAP
FF80
8440
8440
FF80
ENDCHAR
STARTCHAR registered
ENCODING 174
SWIDTH 719 0
DWIDTH 17 0
BBX 16 18 1 0
BITMAP
2000
5FFE
822A
DFF9
A00A
A00A
D7CD
9629
A5EA
A50A
950A
F50D
A50A
A60A
A04A
9FF5
E442
7FFC
ENDCHAR
STARTCHAR macron
ENCODING 175
SWIDTH 263 0
DWIDTH 6 0
BBX 6 3 0 18
BITMAP
FC
84
FC
ENDCHAR
STARTCHAR degree
ENCODING 176
SWIDTH 333 0
DWIDTH 8 0
BBX 8 7 0 9
BITMAP
3C
2A
4A
99
66
42
7E
ENDCHAR
STARTCHAR plusminus
ENCODING 177
SWIDTH 464 0
DWIDTH 11 0
BBX 10 16 1 -3
BITMAP
1C00
2200
1200
FF80
8440
8440
BF80
5200
1200
1C00
0000
FF80
8440
8440
8240
FD80
ENDCHAR
STARTCHAR twosuperior
ENCODING 178
SWIDTH 324 0
DWIDTH 8 0
BBX 6 10 1 7
BITMAP
F8
84
84
FC
48
50
9C
A4
E4
5C
ENDCHAR
STARTCHAR threesuperior
ENCODING 179
SWIDTH 332 0
DWIDTH 8 0
BBX 7 10 0 7
BITMAP
7C
82
82
7E
2A
2A
3A
4A
46
78
ENDCHAR
STARTCHAR acute
ENCODING 180
SWIDTH 202 0
DWIDTH 5 0
BBX 5 5 0 18
BITMAP
30
48
50
A0
40
ENDCHAR
STARTCHAR mu
ENCODING 181
SWIDTH 582 0
DWIDTH 14 0
BBX 12 20 1 -3
BITMAP
20E0
D910
4910
4920
4910
8950
89B0
F910
8890
8890
90D0
9130
88D0
FF30
9410
9270
9F90
9060
8800
F000
ENDCHAR
STARTCHAR paragraph
ENCODING 182
SWIDTH 556 0
DWIDTH 13 0
BBX 12 18 0 0
BITMAP
00C0
0120
0E30
7430
84F0
8390
5C90
64F0
4390
3490
0C90
0490
02F0
0190
0090
0090
0110
00F0
ENDCHAR
STARTCHAR periodcentered
ENCODING 183
SWIDTH 215 0
DWIDTH 5 0
BBX 4 4 1 7
BITMAP
E0
90
A0
E0
ENDCHAR
STARTCHAR cedilla
ENCODING 184
SWIDTH 237 0
DWIDTH 6 0
BBX 6 7 0 -5
BITMAP
18
14
14
14
F4
88
F0
ENDCHAR
STARTCHAR onesuperior
ENCODING 185
SWIDTH 286 0
DWIDTH 7 0
BBX 6 10 0 7
BITMAP
18
24
44
8C
94
74
14
14
14
08
ENDCHAR
STARTCHAR ordmasculine
ENCODING 186
SWIDTH 476 0
DWIDTH 11 0
BBX 10 17 1 0
BITMAP
4880
B740
85C0
8640
FE40
9240
9240
9240
9FC0
E440
8440
FF80
0000
7F00
8080
4080
7F00
ENDCHAR
STARTCHAR guillemotright
ENCODING 187
SWIDTH 689 0
DWIDTH 17 0
BBX 15 11 1 3
BITMAP
6060
9090
8908
C6C6
2222
1212
2E2E
C6C6
8888
9090
6060
ENDCHAR
STARTCHAR onequarter
ENCODING 188
SWIDTH 790 0
DWIDTH 19 0
BBX 18 17 0 0
BITMAP
080000
147000
645000
8A9000
529000
329000
136000
132100
132280
0D2480
01A940
017140
0253C0
025440
025E40
0241C0
0181C0
ENDCHAR
STARTCHAR onehalf
ENCODING 189
SWIDTH 771 0
DWIDTH 19 0
BBX 18 17 0 0
BITMAP
080000
147000
645000
8A9000
529000
329000
136000
132000
132F80
0D3040
01B240
016D80
024480
024900
0251C0
025240
018FC0
ENDCHAR
STARTCHAR threequarters
ENCODING 190
SWIDTH 817 0
DWIDTH 20 0
BBX 19 17 0 0
BITMAP
7C0000
823000
824800
7E4800
2A4800
2A5000
39B000
499080
469140
78A240
00E4A0
0128A0
0129E0
012A20
034F60
0140A0
0080E0
ENDCHAR
STARTCHAR questiondown
ENCODING 191
SWIDTH 455 0
DWIDTH 11 0
BBX 10 17 0 0
BITMAP
0380
0480
0480
0380
0000
0780
0480
0680
0980
3180
4100
F600
4A00
85C0
6840
1C40
03C0
ENDCHAR
STARTCHAR Agrave
ENCODING 192
SWIDTH 507 0
DWIDTH 12 0
BBX 13 22 0 0
BITMAP
1C00
1200
0A00
0A00
0600
0C00
1300
1180
1280
2280
3A80
2240
27C0
2640
4530
7748
4D08
4918
4BE0
8C90
8890
70E0
ENDCHAR
STARTCHAR Aacute
ENCODING 193
SWIDTH 507 0
DWIDTH 12 0
BBX 13 22 0 0
BITMAP
01C0
0120
0240
0480
0300
0C00
1300
1180
1280
2280
3A80
2240
27C0
2640
4530
7748
4D08
4918
4BE0
8C90
8890
70E0
ENDCHAR
STARTCHAR Acircumflex
ENCODING 194
SWIDTH 507 0
DWIDTH 12 0
BBX 13 23 0 0
BITMAP
0700
0900
0A80
1240
2540
1980
0C00
1300
1180
1280
2280
3A80
2240
27C0
2640
4530
7748
4D08
4918
4BE0
8C90
8890
70E0
ENDCHAR
STARTCHAR Atilde
ENCODING 195
SWIDTH 507 0
DWIDTH 12 0
BBX 13 23 0 0
BITMAP
0EE0
1290
1520
2540
4AC0
3380
0C00
1300
1180
1280
2280
3A80
2240
27C0
2640
4530
7748
4D08
4918
4BE0
8C90
8890
70E0
ENDCHAR
STARTCHAR Adieresis
ENCODING 196
SWIDTH 507 0
DWIDTH 12 0
BBX 13 22 0 0
BITMAP
1DC0
2520
2540
1DC0
0000
0C00
1300
1180
1280
2280
3A80
2240
27C0
2640
4530
7748
4D08
4918
4BE0
8C90
8890
70E0
ENDCHAR
STARTCHAR Aring
ENCODING 197
SWIDTH 507 0
DWIDTH 12 0
BBX 13 24 0 0
BITMAP
0500
0A80
1280
2540
1BC0
1040
0F80
0C00
1300
1180
1280
2280
3A80
2240
27C0
2640
4530
7748
4D08
4918
4BE0
8C90
8890
70E0
ENDCHAR
STARTCHAR AE
ENCODING 198
SWIDTH 797 0
DWIDTH 19 0
BBX 20 17 -1 0
BITMAP
003BE0
01C510
012510
022510
0247F0
067C00
054400
08C7C0
094440
114440
1AFF80
264400
244720
47C5D0
884510
484410
383BE0
ENDCHAR
STARTCHAR Ccedilla
ENCODING 199
SWIDTH 515 0
DWIDTH 12 0
BBX 12 22 0 -5
BITMAP
3F00
21F0
2110
2910
37F0
3400
4C00
4400
4400
4400
7400
4800
4AF0
8D10
8910
7970
4F80
3280
0280
0E80
1180
0E00
ENDCHAR
STARTCHAR Egrave
ENCODING 200
SWIDTH 490 0
DWIDTH 12 0
BBX 11 23 1 0
BITMAP
1C00
2400
1400
0A00
0C00
0000
75C0
8A20
8A20
9220
9FC0
E800
8800
9700
9080
9080
EF00
9000
9E00
95C0
9420
8840
F7C0
ENDCHAR
STARTCHAR Eacute
ENCODING 201
SWIDTH 490 0
DWIDTH 12 0
BBX 11 23 1 0
BITMAP
0300
0480
0900
0A00
0C00
0000
75C0
8A20
8A20
9220
9FC0
E800
8800
9700
9080
9080
EF00
9000
9E00
95C0
9420
8840
F7C0
ENDCHAR
STARTCHAR Ecircumflex
ENCODING 202
SWIDTH 490 0
DWIDTH 12 0
BBX 11 24 1 0
BITMAP
0E00
1200
2500
2D00
4C80
3300
0000
75C0
8A20
8A20
9220
9FC0
E800
8800
9700
9080
9080
EF00
9000
9E00
95C0
9420
8840
F7C0
ENDCHAR
STARTCHAR Edieresis
ENCODING 203
SWIDTH 490 0
DWIDTH 12 0
BBX 11 22 1 0
BITMAP
3300
4C80
4A80
7B80
0000
75C0
8A20
8A20
9220
9FC0
E800
8800
9700
9080
9080
EF00
9000
9E00
95C0
9420
8840
F7C0
ENDCHAR
STARTCHAR Igrave
ENCODING 204
SWIDTH 266 0
DWIDTH 6 0
BBX 6 23 0 0
BITMAP
E0
90
50
50
30
00
38
44
44
48
48
74
48
48
48
48
74
48
48
48
48
44
78
ENDCHAR
STARTCHAR Iacute
ENCODING 205
SWIDTH 266 0
DWIDTH 6 0
BBX 6 23 1 0
BITMAP
1C
14
24
48
30
00
70
88
88
90
90
E8
90
90
90
90
E8
90
90
90
90
88
F0
ENDCHAR
STARTCHAR Icircumflex
ENCODING 206
SWIDTH 266 0
DWIDTH 6 0
BBX 7 24 0 0
BITMAP
38
48
54
92
AA
46
00
38
44
44
48
48
74
48
48
48
48
74
48
48
48
48
44
78
ENDCHAR
STARTCHAR Idieresis
ENCODING 207
SWIDTH 266 0
DWIDTH 6 0
BBX 9 22 -1 0
BITMAP
7300
9480
9500
7700
0000
1C00
2200
2200
2400
2400
3A00
2400
2400
2400
2400
3A00
2400
2400
2400
2400
2200
3C00
ENDCHAR
STARTCHAR Eth
ENCODING 208
SWIDTH 669 0
DWIDTH 16 0
BBX 16 17 0 0
BITMAP
07C0
0620
0610
0508
048C
07F2
C8A1
B691
8189
8297
7FA1
04D2
0494
0488
0890
08A0
07C0
ENDCHAR
STARTCHAR Ntilde
ENCODING 209
SWIDTH 598 0
DWIDTH 14 0
BBX 13 24 1 0
BITMAP
0E60
0990
12A0
24A0
2A40
19C0
0000
7070
8888
8C88
9490
9290
EEE8
8988
9190
8890
9890
EB68
9450
9250
9230
9230
8928
F1F0
ENDCHAR
STARTCHAR Ograve
ENCODING 210
SWIDTH 612 0
DWIDTH 15 0
BBX 14 24 0 -1
BITMAP
0700
0500
0280
0280
0180
0000
3F00
21F8
2108
2908
37F8
3478
4C44
4448
4444
4444
747C
4844
49FC
8F04
8904
790C
4FF0
3000
ENDCHAR
STARTCHAR Oacute
ENCODING 211
SWIDTH 612 0
DWIDTH 15 0
BBX 14 24 0 -1
BITMAP
0060
0090
0120
0140
0180
0000
3F00
21F8
2108
2908
37F8
3478
4C44
4448
4444
4444
747C
4844
49FC
8F04
8904
790C
4FF0
3000
ENDCHAR
STARTCHAR Ocircumflex
ENCODING 212
SWIDTH 612 0
DWIDTH 15 0
BBX 14 24 0 -1
BITMAP
0380
0240
04C0
0920
0A90
0660
3F00
21F8
2108
2908
37F8
3478
4C44
4448
4444
4444
747C
4844
49FC
8F04
8904
790C
4FF0
3000
ENDCHAR
STARTCHAR Otilde
ENCODING 213
SWIDTH 612 0
DWIDTH 15 0
BBX 14 24 0 -1
BITMAP
03B8
04A8
0948
0B50
1320
0CE0
3F00
21F8
2108
2908
37F8
3478
4C44
4448
4444
4444
747C
4844
49FC
8F04
8904
790C
4FF0
3000
ENDCHAR
STARTCHAR Odieresis
ENCODING 214
SWIDTH 612 0
DWIDTH 15 0
BBX 14 23 0 -1
BITMAP
0EE0
1290
12A0
0EE0
0000
3F00
21F8
2108
2908
37F8
3478
4C44
4448
4444
4444
747C
4844
49FC
8F04
8904
790C
4FF0
3000
ENDCHAR
STARTCHAR multiply
ENCODING 215
SWIDTH 421 0
DWIDTH 10 0
BBX 9 9 1 3
BITMAP
7700
9900
8880
8500
5A00
A100
9900
A900
6600
ENDCHAR
STARTCHAR Oslash
ENCODING 216
SWIDTH 612 0
DWIDTH 15 0
BBX 14 18 0 -1
BITMAP
3F30
21C8
2144
2948
3788
3598
4D64
4628
4444
44C4
7CFC
4B44
51FC
9304
A504
450C
47F0
3800
ENDCHAR
STARTCHAR Ugrave
ENCODING 217
SWIDTH 583 0
DWIDTH 14 0
BBX 14 23 0 -1
BITMAP
0E00
0900
0500
0480
0300
3870
2488
2488
2488
4488
7CF8
4488
4848
4848
4848
7478
4848
49F8
4E08
8918
7974
4FF8
3000
ENDCHAR
STARTCHAR Uacute
ENCODING 218
SWIDTH 583 0
DWIDTH 14 0
BBX 14 24 0 -1
BITMAP
00C0
0120
0240
0280
0300
0000
3870
2488
2488
2488
4488
7CF8
4488
4848
4848
4848
7478
4848
49F8
4E08
8918
7974
4FF8
3000
ENDCHAR
STARTCHAR Ucircumflex
ENCODING 219
SWIDTH 583 0
DWIDTH 14 0
BBX 14 25 0 -1
BITMAP
0700
0480
0980
1240
1520
0CC0
0000
3870
2488
2488
2488
4488
7CF8
4488
4848
4848
4848
7478
4848
49F8
4E08
8918
7974
4FF8
3000
ENDCHAR
STARTCHAR Udieresis
ENCODING 220
SWIDTH 583 0
DWIDTH 14 0
BBX 14 23 0 -1
BITMAP
0CC0
1320
1320
1CE0
0000
3870
2488
2488
2488
4488
7CF8
4488
4848
4848
4848
7478
4848
49F8
4E08
8918
7974
4FF8
3000
ENDCHAR
STARTCHAR Yacute
ENCODING 221
SWIDTH 484 0
DWIDTH 12 0
BBX 13 21 -1 0
BITMAP
00C0
0120
0240
0280
0320
7058
8848
8488
4290
2790
1950
1220
0A40
0440
0740
0440
0880
0900
1100
1900
0600
ENDCHAR
STARTCHAR Thorn
ENCODING 222
SWIDTH 520 0
DWIDTH 13 0
BBX 12 17 1 0
BITMAP
7000
8800
B000
CE00
C180
C260
BA10
9610
91E0
9220
CC40
AA80
9100
9600
9800
9000
F800
ENDCHAR
STARTCHAR germandbls
ENCODING 223
SWIDTH 884 0
DWIDTH 21 0
BBX 21 17 0 0
BITMAP
0FCBF8
743488
743A88
8BD278
4C1180
440880
2A0B80
320440
110440
090220
0B8160
048190
044090
7A3F88
862148
87E170
FC1F80
ENDCHAR
STARTCHAR agrave
ENCODING 224
SWIDTH 507 0
DWIDTH 12 0
BBX 13 22 0 0
BITMAP
1C00
1200
0A00
0A00
0600
0C00
1300
1180
1280
2280
3A80
2240
27C0
2640
4530
7748
4D08
4918
4BE0
8C90
8890
70E0
ENDCHAR
STARTCHAR aacute
ENCODING 225
SWIDTH 507 0
DWIDTH 12 0
BBX 13 22 0 0
BITMAP
01C0
0120
0240
0480
0300
0C00
1300
1180
1280
2280
3A80
2240
27C0
2640
4530
7748
4D08
4918
4BE0
8C90
8890
70E0
ENDCHAR
STARTCHAR acircumflex
ENCODING 226
SWIDTH 507 0
DWIDTH 12 0
BBX 13 23 0 0
BITMAP
0700
0900
0A80
1240
2540
1980
0C00
1300
1180
1280
2280
3A80
2240
27C0
2640
4530
7748
4D08
4918
4BE0
8C90
8890
70E0
ENDCHAR
STARTCHAR atilde
ENCODING 227
SWIDTH 507 0
DWIDTH 12 0
BBX 13 23 0 0
BITMAP
0EE0
1290
1520
2540
4AC0
3380
0C00
1300
1180
1280
2280
3A80
2240
27C0
2640
4530
7748
4D08
4918
4BE0
8C90
8890
70E0
ENDCHAR
STARTCHAR adieresis
ENCODING 228
SWIDTH 507 0
DWIDTH 12 0
BBX 13 22 0 0
BITMAP
1DC0
2520
2540
1DC0
0000
0C00
1300
1180
1280
2280
3A80
2240
27C0
2640
4530
7748
4D08
4918
4BE0
8C90
8890
70E0
ENDCHAR
STARTCHAR aring
ENCODING 229
SWIDTH 507 0
DWIDTH 12 0
BBX 13 24 0 0
BITMAP
0500
0A80
1280
2540
1BC0
1040
0F80
0C00
1300
1180
1280
2280
3A80
2240
27C0
2640
4530
7748
4D08
4918
4BE0
8C90
8890
70E0
ENDCHAR
STARTCHAR ae
ENCODING 230
SWIDTH 797 0
DWIDTH 19 0
BBX 20 17 -1 0
BITMAP
003BE0
01C510
012510
022510
0247F0
067C00
054400
08C7C0
094440
114440
1AFF80
264400
244720
47C5D0
884510
484410
383BE0
ENDCHAR
STARTCHAR ccedilla
ENCODING 231
SWIDTH 515 0
DWIDTH 12 0
BBX 12 22 0 -5
BITMAP
3F00
21F0
2110
2910
37F0
3400
4C00
4400
4400
4400
7400
4800
4AF0
8D10
8910
7970
4F80
3280
0280
0E80
1180
0E00
ENDCHAR
STARTCHAR egrave
ENCODING 232
SWIDTH 490 0
DWIDTH 12 0
BBX 11 23 1 0
BITMAP
1C00
2400
1400
0A00
0C00
0000
75C0
8A20
8A20
9220
9FC0
E800
8800
9700
9080
9080
EF00
9000
9E00
95C0
9420
8840
F7C0
ENDCHAR
STARTCHAR eacute
ENCODING 233
SWIDTH 490 0
DWIDTH 12 0
BBX 11 23 1 0
BITMAP
0300
0480
0900
0A00
0C00
0000
75C0
8A20
8A20
9220
9FC0
E800
8800
9700
9080
9080
EF00
9000
9E00
95C0
9420
8840
F7C0
ENDCHAR
STARTCHAR ecircumflex
ENCODING 234
SWIDTH 490 0
DWIDTH 12 0
BBX 11 24 1 0
BITMAP
0E00
1200
2500
2D00
4C80
3300
0000
75C0
8A20
8A20
9220
9FC0
E800
8800
9700
9080
9080
EF00
9000
9E00
95C0
9420
8840
F7C0
ENDCHAR
STARTCHAR edieresis
ENCODING 235
SWIDTH 490 0
DWIDTH 12 0
BBX 11 22 1 0
BITMAP
3300
4C80
4A80
7B80
0000
75C0
8A20
8A20
9220
9FC0
E800
8800
9700
9080
9080
EF00
9000
9E00
95C0
9420
8840
F7C0
ENDCHAR
STARTCHAR igrave
ENCODING 236
SWIDTH 266 0
DWIDTH 6 0
BBX 6 23 0 0
BITMAP
E0
90
50
50
30
00
38
44
44
48
48
74
48
48
48
48
74
48
48
48
48
44
78
ENDCHAR
STARTCHAR iacute
ENCODING 237
SWIDTH 266 0
DWIDTH 6 0
BBX 6 23 1 0
BITMAP
1C
14
24
48
30
00
70
88
88
90
90
E8
90
90
90
90
E8
90
90
90
90
88
F0
ENDCHAR
STARTCHAR icircumflex
ENCODING 238
SWIDTH 266 0
DWIDTH 6 0
BBX 7 24 0 0
BITMAP
38
48
54
92
AA
46
00
38
44
44
48
48
74
48
48
48
48
74
48
48
48
48
44
78
ENDCHAR
STARTCHAR idieresis
ENCODING 239
SWIDTH 266 0
DWIDTH 6 0
BBX 9 22 -1 0
BITMAP
7300
9480
9500
7700
0000
1C00
2200
2200
2400
2400
3A00
2400
2400
2400
2400
3A00
2400
2400
2400
2400
2200
3C00
ENDCHAR
STARTCHAR eth
ENCODING 240
SWIDTH 669 0
DWIDTH 16 0
BBX 16 17 0 0
BITMAP
07C0
0620
0610
0508
048C
07F2
C8A1
B691
8189
8297
7FA1
04D2
0494
0488
0890
08A0
07C0
ENDCHAR
STARTCHAR ntilde
ENCODING 241
SWIDTH 598 0
DWIDTH 14 0
BBX 13 24 1 0
BITMAP
0E60
0990
12A0
24A0
2A40
19C0
0000
7070
8888
8C88
9490
9290
EEE8
8988
9190
8890
9890
EB68
9450
9250
9230
9230
8928
F1F0
ENDCHAR
STARTCHAR ograve
ENCODING 242
SWIDTH 612 0
DWIDTH 15 0
BBX 14 24 0 -1
BITMAP
0700
0500
0280
0280
0180
0000
3F00
21F8
2108
2908
37F8
3478
4C44
4448
4444
4444
747C
4844
49FC
8F04
8904
790C
4FF0
3000
ENDCHAR
STARTCHAR oacute
ENCODING 243
SWIDTH 612 0
DWIDTH 15 0
BBX 14 24 0 -1
BITMAP
0060
0090
0120
0140
0180
0000
3F00
21F8
2108
2908
37F8
3478
4C44
4448
4444
4444
747C
4844
49FC
8F04
8904
790C
4FF0
3000
ENDCHAR
STARTCHAR ocircumflex
ENCODING 244
SWIDTH 612 0
DWIDTH 15 0
BBX 14 24 0 -1
BITMAP
0380
0240
04C0
0920
0A90
0660
3F00
21F8
2108
2908
37F8
3478
4C44
4448
4444
4444
747C
4844
49FC
8F04
8904
790C
4FF0
3000
ENDCHAR
STARTCHAR otilde
ENCODING 245
SWIDTH 612 0
DWIDTH 15 0
BBX 14 24 0 -1
BITMAP
03B8
04A8
0948
0B50
1320
0CE0
3F00
21F8
2108
2908
37F8
3478
4C44
4448
4444
4444
747C
4844
49FC
8F04
8904
790C
4FF0
3000
ENDCHAR
STARTCHAR odieresis
ENCODING 246
SWIDTH 612 0
DWIDTH 15 0
BBX 14 23 0 -1
BITMAP
0EE0
1290
12A0
0EE0
0000
3F00
21F8
2108
2908
37F8
3478
4C44
4448
4444
4444
747C
4844
49FC
8F04
8904
790C
4FF0
3000
ENDCHAR
STARTCHAR divide
ENCODING 247
SWIDTH 457 0
DWIDTH 11 0
BBX 10 14 0 1
BITMAP
0E00
0900
0A00
0E00
0000
7FC0
8240
8440
7FC0
0000
0E00
0A00
0A00
0E00
ENDCHAR
STARTCHAR oslash
ENCODING 248
SWIDTH 612 0
DWIDTH 15 0
BBX 14 18 0 -1
BITMAP
3F30
21C8
2144
2948
3788
3598
4D64
4628
4444
44C4
7CFC
4B44
51FC
9304
A504
450C
47F0
3800
ENDCHAR
STARTCHAR ugrave
ENCODING 249
SWIDTH 583 0
DWIDTH 14 0
BBX 14 23 0 -1
BITMAP
0E00
0900
0500
0480
0300
3870
2488
2488
2488
4488
7CF8
4488
4848
4848
4848
7478
4848
49F8
4E08
8918
7974
4FF8
3000
ENDCHAR
STARTCHAR uacute
ENCODING 250
SWIDTH 583 0
DWIDTH 14 0
BBX 14 24 0 -1
BITMAP
00C0
0120
0240
0280
0300
0000
3870
2488
2488
2488
4488
7CF8
4488
4848
4848
4848
7478
4848
49F8
4E08
8918
7974
4FF8
3000
ENDCHAR
STARTCHAR ucircumflex
ENCODING 251
SWIDTH 583 0
DWIDTH 14 0
BBX 14 25 0 -1
BITMAP
0700
0480
0980
1240
1520
0CC0
0000
3870
2488
2488
2488
4488
7CF8
4488
4848
4848
4848
7478
4848
49F8
4E08
8918
7974
4FF8
3000
ENDCHAR
STARTCHAR udieresis
ENCODING 252
SWIDTH 583 0
DWIDTH 14 0
BBX 14 23 0 -1
BITMAP
0CC0
1320
1320
1CE0
0000
3870
2488
2488
2488
4488
7CF8
4488
4848
4848
4848
7478
4848
49F8
4E08
8918
7974
4FF8
3000
ENDCHAR
STARTCHAR yacute
ENCODING 253
SWIDTH 484 0
DWIDTH 12 0
BBX 13 21 -1 0
BITMAP
00C0
0120
0240
0280
0320
7058
8848
8488
4290
2790
1950
1220
0A40
0440
0740
0440
0880
0900
1100
1900
0600
ENDCHAR
STARTCHAR thorn
ENCODING 254
SWIDTH 520 0
DWIDTH 13 0
BBX 12 17 1 0
BITMAP
7000
8800
B000
CE00
C180
C260
BA10
9610
91E0
9220
CC40
AA80
9100
9600
9800
9000
F800
ENDCHAR
STARTCHAR ydieresis
ENCODING 255
SWIDTH 484 0
DWIDTH 12 0
BBX 13 21 -1 0
BITMAP
0CC0
1320
1520
1CC0
0020
7058
8848
8488
4290
2790
1950
1220
0A40
0440
0740
0440
0880
0900
1100
1900
0600
ENDCHAR
STARTCHAR Amacron
ENCODING 256
SWIDTH 507 0
DWIDTH 12 0
BBX 13 20 0 0
BITMAP
1F80
1080
1F80
0C00
1300
1180
1280
2280
3A80
2240
27C0
2640
4530
7748
4D08
4918
4BE0
8C90
8890
70E0
ENDCHAR
STARTCHAR amacron
ENCODING 257
SWIDTH 507 0
DWIDTH 12 0
BBX 13 20 0 0
BITMAP
1F80
1080
1F80
0C00
1300
1180
1280
2280
3A80
2240
27C0
2640
4530
7748
4D08
4918
4BE0
8C90
8890
70E0
ENDCHAR
STARTCHAR Abreve
ENCODING 258
SWIDTH 507 0
DWIDTH 12 0
BBX 13 23 0 0
BITMAP
1980
2940
2940
1780
1480
0F00
0C00
1300
1180
1280
2280
3A80
2240
27C0
2640
4530
7748
4D08
4918
4BE0
8C90
8890
70E0
ENDCHAR
STARTCHAR abreve
ENCODING 259
SWIDTH 507 0
DWIDTH 12 0
BBX 13 23 0 0
BITMAP
1980
2940
2940
1780
1480
0F00
0C00
1300
1180
1280
2280
3A80
2240
27C0
2640
4530
7748
4D08
4918
4BE0
8C90
8890
70E0
ENDCHAR
STARTCHAR Aogonek
ENCODING 260
SWIDTH 507 0
DWIDTH 12 0
BBX 13 22 0 -5
BITMAP
0C00
1300
1180
1280
2280
3A80
2240
27C0
2640
4530
7748
4D08
4918
4BE0
8C90
8890
70E0
00A0
0120
00D0
0048
0030
ENDCHAR
STARTCHAR aogonek
ENCODING 261
SWIDTH 507 0
DWIDTH 12 0
BBX 13 22 0 -5
BITMAP
0C00
1300
1180
1280
2280
3A80
2240
27C0
2640
4530
7748
4D08
4918
4BE0
8C90
8890
70E0
00A0
0120
00D0
0048
0030
ENDCHAR
STARTCHAR Cacute
ENCODING 262
SWIDTH 515 0
DWIDTH 12 0
BBX 12 24 0 -1
BITMAP
00C0
0120
0140
0280
0300
0000
3F00
21F0
2110
2910
37F0
3400
4C00
4400
4400
4400
7400
4800
4AF0
8D10
8910
7970
4F80
3000
ENDCHAR
STARTCHAR cacute
ENCODING 263
SWIDTH 515 0
DWIDTH 12 0
BBX 12 24 0 -1
BITMAP
00C0
0120
0140
0280
0300
0000
3F00
21F0
2110
2910
37F0
3400
4C00
4400
4400
4400
7400
4800
4AF0
8D10
8910
7970
4F80
3000
ENDCHAR
STARTCHAR Ccircumflex
ENCODING 264
SWIDTH 515 0
DWIDTH 12 0
BBX 12 24 0 -1
BITMAP
0380
0480
0540
0920
0AA0
04E0
3F00
21F0
2110
2910
37F0
3400
4C00
4400
4400
4400
7400
4800
4AF0
8D10
8910
7970
4F80
3000
ENDCHAR
STARTCHAR ccircumflex
ENCODING 265
SWIDTH 515 0
DWIDTH 12 0
BBX 12 24 0 -1
BITMAP
0380
0480
0540
0920
0AA0
04E0
3F00
21F0
2110
2910
37F0
3400
4C00
4400
4400
4400
7400
4800
4AF0
8D10
8910
7970
4F80
3000
ENDCHAR
STARTCHAR Cdotaccent
ENCODING 266
SWIDTH 515 0
DWIDTH 12 0
BBX 12 23 0 -1
BITMAP
0380
0480
0280
0380
0000
3F00
21F0
2110
2910
37F0
3400
4C00
4400
4400
4400
7400
4800
4AF0
8D10
8910
7970
4F80
3000
ENDCHAR
STARTCHAR cdotaccent
ENCODING 267
SWIDTH 515 0
DWIDTH 12 0
BBX 12 23 0 -1
BITMAP
0380
0480
0280
0380
0000
3F00
21F0
2110
2910
37F0
3400
4C00
4400
4400
4400
7400
4800
4AF0
8D10
8910
7970
4F80
3000
ENDCHAR
STARTCHAR Ccaron
ENCODING 268
SWIDTH 515 0
DWIDTH 12 0
BBX 12 24 0 -1
BITMAP
0EE0
0AA0
0920
0540
0480
0380
3F00
21F0
2110
2910
37F0
3400
4C00
4400
4400
4400
7400
4800
4AF0
8D10
8910
7970
4F80
3000
ENDCHAR
STARTCHAR ccaron
ENCODING 269
SWIDTH 515 0
DWIDTH 12 0
BBX 12 24 0 -1
BITMAP
0EE0
0AA0
0920
0540
0480
0380
3F00
21F0
2110
2910
37F0
3400
4C00
4400
4400
4400
7400
4800
4AF0
8D10
8910
7970
4F80
3000
ENDCHAR
STARTCHAR Dcaron
ENCODING 270
SWIDTH 520 0
DWIDTH 12 0
BBX 12 24 1 0
BITMAP
3B80
4C80
2500
1500
1200
0C00
1000
6800
C400
C200
A100
9980
EA40
9620
9110
90A0
91D0
EC20
8A40
9980
9100
9200
8C00
FC00
ENDCHAR
STARTCHAR dcaron
ENCODING 271
SWIDTH 520 0
DWIDTH 12 0
BBX 12 24 1 0
BITMAP
3B80
4C80
2500
1500
1200
0C00
1000
6800
C400
C200
A100
9980
EA40
9620
9110
90A0
91D0
EC20
8A40
9980
9100
9200
8C00
FC00
ENDCHAR
STARTCHAR Dcroat
ENCODING 272
SWIDTH 669 0
DWIDTH 16 0
BBX 16 17 0 0
BITMAP
07C0
0620
0610
0508
048C
07F2
C8A1
B691
8189
8297
7FA1
04D2
0494
0488
0890
08A0
07C0
ENDCHAR
STARTCHAR dcroat
ENCODING 273
SWIDTH 669 0
DWIDTH 16 0
BBX 16 17 0 0
BITMAP
07C0
0620
0610
0508
048C
07F2
C8A1
B691
8189
8297
7FA1
04D2
0494
0488
0890
08A0
07C0
ENDCHAR
STARTCHAR Emacron
ENCODING 274
SWIDTH 490 0
DWIDTH 12 0
BBX 11 21 1 0
BITMAP
3F00
2100
3F00
0000
75C0
8A20
8A20
9220
9FC0
E800
8800
9700
9080
9080
EF00
9000
9E00
95C0
9420
8840
F7C0
ENDCHAR
STARTCHAR emacron
ENCODING 275
SWIDTH 490 0
DWIDTH 12 0
BBX 11 21 1 0
BITMAP
3F00
2100
3F00
0000
75C0
8A20
8A20
9220
9FC0
E800
8800
9700
9080
9080
EF00
9000
9E00
95C0
9420
8840
F7C0
ENDCHAR
STARTCHAR Ebreve
ENCODING 276
SWIDTH 490 0
DWIDTH 12 0
BBX 11 24 1 0
BITMAP
3180
4A40
2A80
2F80
2900
1F00
0000
75C0
8A20
8A20
9220
9FC0
E800
8800
9700
9080
9080
EF00
9000
9E00
95C0
9420
8840
F7C0
ENDCHAR
STARTCHAR ebreve
ENCODING 277
SWIDTH 490 0
DWIDTH 12 0
BBX 11 24 1 0
BITMAP
3180
4A40
2A80
2F80
2900
1F00
0000
75C0
8A20
8A20
9220
9FC0
E800
8800
9700
9080
9080
EF00
9000
9E00
95C0
9420
8840
F7C0
ENDCHAR
STARTCHAR Edotaccent
ENCODING 278
SWIDTH 490 0
DWIDTH 12 0
BBX 11 22 1 0
BITMAP
0C00
1200
1200
1C00
0000
75C0
8A20
8A20
9220
9FC0
E800
8800
9700
9080
9080
EF00
9000
9E00
95C0
9420
8840
F7C0
ENDCHAR
STARTCHAR edotaccent
ENCODING 279
SWIDTH 490 0
DWIDTH 12 0
BBX 11 22 1 0
BITMAP
0C00
1200
1200
1C00
0000
75C0
8A20
8A20
9220
9FC0
E800
8800
9700
9080
9080
EF00
9000
9E00
95C0
9420
8840
F7C0
ENDCHAR
STARTCHAR Eogonek
ENCODING 280
SWIDTH 490 0
DWIDTH 12 0
BBX 11 22 1 -5
BITMAP
75C0
8A20
8A20
9220
9FC0
E800
8800
9700
9080
9080
EF00
9000
9E00
95C0
9420
8840
F7C0
0480
0580
0240
0120
00C0
ENDCHAR
STARTCHAR eogonek
ENCODING 281
SWIDTH 490 0
DWIDTH 12 0
BBX 11 22 1 -5
BITMAP
75C0
8A20
8A20
9220
9FC0
E800
8800
9700
9080
9080
EF00
9000
9E00
95C0
9420
8840
F7C0
0480
0580
0240
0120
00C0
ENDCHAR
STARTCHAR Ecaron
ENCODING 282
SWIDTH 490 0
DWIDTH 12 0
BBX 11 23 1 0
BITMAP
3B80
2A80
2480
1500
1200
0E00
75C0
8A20
8A20
9220
9FC0
E800
8800
9700
9080
9080
EF00
9000
9E00
95C0
9420
8840
F7C0
ENDCHAR
STARTCHAR ecaron
ENCODING 283
SWIDTH 490 0
DWIDTH 12 0
BBX 11 23 1 0
BITMAP
3B80
2A80
2480
1500
1200
0E00
75C0
8A20
8A20
9220
9FC0
E800
8800
9700
9080
9080
EF00
9000
9E00
95C0
9420
8840
F7C0
ENDCHAR
STARTCHAR Gcircumflex
ENCODING 284
SWIDTH 557 0
DWIDTH 13 0
BBX 13 24 0 -1
BITMAP
0380
0480
0540
0920
12A0
0CC0
3F00
21F0
2110
2910
37F0
3400
4C00
4470
4488
4448
7448
48F8
4A88
8D48
8948
7988
4F70
3000
ENDCHAR
STARTCHAR gcircumflex
ENCODING 285
SWIDTH 557 0
DWIDTH 13 0
BBX 13 24 0 -1
BITMAP
0380
0480
0540
0920
12A0
0CC0
3F00
21F0
2110
2910
37F0
3400
4C00
4470
4488
4448
7448
48F8
4A88
8D48
8948
7988
4F70
3000
ENDCHAR
STARTCHAR Gbreve
ENCODING 286
SWIDTH 557 0
DWIDTH 13 0
BBX 13 24 0 -1
BITMAP
0C40
14A0
12A0
0BA0
0A40
0780
3F00
21F0
2110
2910
37F0
3400
4C00
4470
4488
4448
7448
48F8
4A88
8D48
8948
7988
4F70
3000
ENDCHAR
STARTCHAR gbreve
ENCODING 287
SWIDTH 557 0
DWIDTH 13 0
BBX 13 24 0 -1
BITMAP
0C40
14A0
12A0
0BA0
0A40
0780
3F00
21F0
2110
2910
37F0
3400
4C00
4470
4488
4448
7448
48F8
4A88
8D48
8948
7988
4F70
3000
ENDCHAR
STARTCHAR Gdotaccent
ENCODING 288
SWIDTH 557 0
DWIDTH 13 0
BBX 13 23 0 -1
BITMAP
0380
0480
0280
0380
0000
3F00
21F0
2110
2910
37F0
3400
4C00
4470
4488
4448
7448
48F8
4A88
8D48
8948
7988
4F70
3000
ENDCHAR
STARTCHAR gdotaccent
ENCODING 289
SWIDTH 557 0
DWIDTH 13 0
BBX 13 23 0 -1
BITMAP
0380
0480
0280
0380
0000
3F00
21F0
2110
2910
37F0
3400
4C00
4470
4488
4448
7448
48F8
4A88
8D48
8948
7988
4F70
3000
ENDCHAR
STARTCHAR Gcommaaccent
ENCODING 290
SWIDTH 557 0
DWIDTH 13 0
BBX 13 23 0 -6
BITMAP
3F00
21F0
2110
2910
37F0
3400
4C00
4470
4488
4448
7448
48F8
4A88
8D48
8948
7988
4F70
3000
0300
0480
0900
0A00
0C00
ENDCHAR
STARTCHAR gcommaaccent
ENCODING 291
SWIDTH 557 0
DWIDTH 13 0
BBX 13 23 0 -6
BITMAP
3F00
21F0
2110
2910
37F0
3400
4C00
4470
4488
4448
7448
48F8
4A88
8D48
8948
7988
4F70
3000
0300
0480
0900
0A00
0C00
ENDCHAR
STARTCHAR Hcircumflex
ENCODING 292
SWIDTH 611 0
DWIDTH 15 0
BBX 14 23 1 0
BITMAP
0700
0900
0A80
1240
2540
1980
70F0
8908
8890
9090
9090
E8F0
9090
9090
9098
91E4
EE44
9448
95F0
9E90
9090
8910
F0F0
ENDCHAR
STARTCHAR hcircumflex
ENCODING 293
SWIDTH 611 0
DWIDTH 15 0
BBX 14 23 1 0
BITMAP
0700
0900
0A80
1240
2540
1980
70F0
8908
8890
9090
9090
E8F0
9090
9090
9098
91E4
EE44
9448
95F0
9E90
9090
8910
F0F0
ENDCHAR
STARTCHAR Hbar
ENCODING 294
SWIDTH 706 0
DWIDTH 17 0
BBX 16 17 1 0
BITMAP
3838
4444
2444
E7FE
A421
FC21
C7FD
4446
244E
4472
7EA2
462A
46F4
4744
4444
4444
3878
ENDCHAR
STARTCHAR hbar
ENCODING 295
SWIDTH 706 0
DWIDTH 17 0
BBX 16 17 1 0
BITMAP
3838
4444
2444
E7FE
A421
FC21
C7FD
4446
244E
4472
7EA2
462A
46F4
4744
4444
4444
3878
ENDCHAR
STARTCHAR Itilde
ENCODING 296
SWIDTH 266 0
DWIDTH 6 0
BBX 10 23 -1 0
BITMAP
3980
4A40
5480
9300
A900
4E00
1C00
2200
2200
2400
2400
3A00
2400
2400
2400
2400
3A00
2400
2400
2400
2400
2200
3C00
ENDCHAR
STARTCHAR itilde
ENCODING 297
SWIDTH 266 0
DWIDTH 6 0
BBX 10 23 -1 0
BITMAP
3980
4A40
5480
9300
A900
4E00
1C00
2200
2200
2400
2400
3A00
2400
2400
2400
2400
3A00
2400
2400
2400
2400
2200
3C00
ENDCHAR
STARTCHAR Imacron
ENCODING 298
SWIDTH 266 0
DWIDTH 6 0
BBX 7 20 0 0
BITMAP
FC
82
7C
38
44
44
48
48
74
48
48
48
48
74
48
48
48
48
44
78
ENDCHAR
STARTCHAR imacron
ENCODING 299
SWIDTH 266 0
DWIDTH 6 0
BBX 7 20 0 0
BITMAP
FC
82
7C
38
44
44
48
48
74
48
48
48
48
74
48
48
48
48
44
78
ENDCHAR
STARTCHAR Ibreve
ENCODING 300
SWIDTH 266 0
DWIDTH 6 0
BBX 8 24 0 0
BITMAP
C6
A9
AA
BE
A2
7C
00
38
44
44
48
48
74
48
48
48
48
74
48
48
48
48
44
78
ENDCHAR
STARTCHAR ibreve
ENCODING 301
SWIDTH 266 0
DWIDTH 6 0
BBX 8 24 0 0
BITMAP
C6
A9
AA
BE
A2
7C
00
38
44
44
48
48
74
48
48
48
48
74
48
48
48
48
44
78
ENDCHAR
STARTCHAR Iogonek
ENCODING 302
SWIDTH 266 0
DWIDTH 6 0
BBX 6 23 0 -6
BITMAP
38
44
44
48
48
74
48
48
48
48
74
48
48
48
48
44
78
50
90
B8
44
24
18
ENDCHAR
STARTCHAR iogonek
ENCODING 303
SWIDTH 266 0
DWIDTH 6 0
BBX 6 23 0 -6
BITMAP
38
44
44
48
48
74
48
48
48
48
74
48
48
48
48
44
78
50
90
B8
44
24
18
ENDCHAR
STARTCHAR Idotaccent
ENCODING 304
SWIDTH 266 0
DWIDTH 6 0
BBX 5 22 1 0
BITMAP
70
90
90
70
00
70
88
88
90
90
E8
90
90
90
90
E8
90
90
90
90
88
F0
ENDCHAR
STARTCHAR dotlessi
ENCODING 305
SWIDTH 266 0
DWIDTH 6 0
BBX 5 17 1 0
BITMAP
70
88
88
90
90
E8
90
90
90
90
E8
90
90
90
90
88
F0
ENDCHAR
STARTCHAR IJ
ENCODING 306
SWIDTH 750 0
DWIDTH 18 0
BBX 16 18 1 -1
BITMAP
7006
8809
8809
9009
9009
E80F
9009
9009
9309
9489
EC4F
9629
9159
9189
9085
8845
F02F
0030
ENDCHAR
STARTCHAR ij
ENCODING 307
SWIDTH 749 0
DWIDTH 18 0
BBX 16 18 1 -1
BITMAP
7006
8809
8809
9009
9009
E80F
9009
9009
9309
9489
EC4F
9629
9159
9189
9085
8845
F02F
0030
ENDCHAR
STARTCHAR Jcircumflex
ENCODING 308
SWIDTH 484 0
DWIDTH 12 0
BBX 12 24 0 -1
BITMAP
01C0
0240
02A0
0490
0550
0270
01C0
0220
0220
0120
0220
03E0
0220
0220
6220
9220
93E0
8E20
4E20
3220
2120
10A0
09C0
0600
ENDCHAR
STARTCHAR jcircumflex
ENCODING 309
SWIDTH 482 0
DWIDTH 12 0
BBX 12 24 0 -1
BITMAP
01C0
0240
02A0
0490
0550
0270
01C0
0220
0220
0120
0220
03E0
0220
0220
6220
9220
93E0
8E20
4E20
3220
2120
10A0
09C0
0600
ENDCHAR
STARTCHAR Kcommaaccent
ENCODING 310
SWIDTH 541 0
DWIDTH 13 0
BBX 12 23 1 -6
BITMAP
7040
88A0
8890
9110
9220
ED40
88C0
9080
9100
8A80
EA40
95C0
9A40
9220
9130
8920
F1E0
0000
0E00
0A00
1400
2400
1800
ENDCHAR
STARTCHAR kcommaaccent
ENCODING 311
SWIDTH 541 0
DWIDTH 13 0
BBX 12 23 1 -6
BITMAP
7040
88A0
8890
9110
9220
ED40
88C0
9080
9100
8A80
EA40
95C0
9A40
9220
9130
8920
F1E0
0000
0E00
0A00
1400
2400
1800
ENDCHAR
STARTCHAR kgreenlandic
ENCODING 312
SWIDTH 541 0
DWIDTH 13 0
BBX 12 17 1 0
BITMAP
7040
88A0
8890
9110
9220
ED40
88C0
9080
9100
8A80
EA40
95C0
9A40
9220
9130
8920
F1E0
ENDCHAR
STARTCHAR Lacute
ENCODING 313
SWIDTH 467 0
DWIDTH 11 0
BBX 11 22 1 0
BITMAP
0C00
1200
1400
2800
1800
7000
8800
8800
9000
9000
E800
9000
9000
9000
9000
E800
9000
9840
97A0
9420
8820
FFC0
ENDCHAR
STARTCHAR lacute
ENCODING 314
SWIDTH 467 0
DWIDTH 11 0
BBX 11 22 1 0
BITMAP
0C00
1200
1400
2800
1800
7000
8800
8800
9000
9000
E800
9000
9000
9000
9000
E800
9000
9840
97A0
9420
8820
FFC0
ENDCHAR
STARTCHAR Lcommaaccent
ENCODING 315
SWIDTH 467 0
DWIDTH 11 0
BBX 11 23 1 -6
BITMAP
7000
8800
8800
9000
9000
E800
9000
9000
9000
9000
E800
9000
9840
97A0
9420
8820
FFC0
0000
1C00
1400
2400
4800
3000
ENDCHAR
STARTCHAR lcommaaccent
ENCODING 316
SWIDTH 467 0
DWIDTH 11 0
BBX 11 23 1 -6
BITMAP
7000
8800
8800
9000
9000
E800
9000
9000
9000
9000
E800
9000
9840
97A0
9420
8820
FFC0
0000
1C00
1400
2400
4800
3000
ENDCHAR
STARTCHAR Lcaron
ENCODING 317
SWIDTH 467 0
DWIDTH 11 0
BBX 11 19 1 0
BITMAP
0180
0140
7240
8C80
8D00
9200
9000
E800
9000
9000
9000
9000
E800
9000
9840
97A0
9420
8820
FFC0
ENDCHAR
STARTCHAR lcaron
ENCODING 318
SWIDTH 467 0
DWIDTH 11 0
BBX 11 19 1 0
BITMAP
0180
0140
7240
8C80
8D00
9200
9000
E800
9000
9000
9000
9000
E800
9000
9840
97A0
9420
8820
FFC0
ENDCHAR
STARTCHAR Ldot
ENCODING 319
SWIDTH 611 0
DWIDTH 15 0
BBX 13 17 1 0
BITMAP
7000
8800
8800
9000
9000
E800
9030
9048
9048
9078
E800
9000
9840
97A0
9420
8820
FFC0
ENDCHAR
STARTCHAR ldotaccent
ENCODING 320
SWIDTH 611 0
DWIDTH 15 0
BBX 13 17 1 0
BITMAP
7000
8800
8800
9000
9000
E800
9030
9048
9048
9078
E800
9000
9840
97A0
9420
8820
FFC0
ENDCHAR
STARTCHAR Lslash
ENCODING 321
SWIDTH 505 0
DWIDTH 12 0
BBX 12 17 0 0
BITMAP
1C00
2200
2400
2400
2400
3A00
2300
E480
A480
A700
FA00
2400
2630
25D0
2510
4210
3FF0
ENDCHAR
STARTCHAR lslash
ENCODING 322
SWIDTH 505 0
DWIDTH 12 0
BBX 12 17 0 0
BITMAP
1C00
2200
2400
2400
2400
3A00
2300
E480
A480
A700
FA00
2400
2630
25D0
2510
4210
3FF0
ENDCHAR
STARTCHAR Nacute
ENCODING 323
SWIDTH 598 0
DWIDTH 14 0
BBX 13 22 1 0
BITMAP
01C0
0140
0280
0480
0300
7070
8888
8C88
9490
9290
EEE8
8988
9190
8890
9890
EB68
9450
9250
9230
9230
8928
F1F0
ENDCHAR
STARTCHAR nacute
ENCODING 324
SWIDTH 598 0
DWIDTH 14 0
BBX 13 22 1 0
BITMAP
01C0
0140
0280
0480
0300
7070
8888
8C88
9490
9290
EEE8
8988
9190
8890
9890
EB68
9450
9250
9230
9230
8928
F1F0
ENDCHAR
STARTCHAR Ncommaaccent
ENCODING 325
SWIDTH 598 0
DWIDTH 14 0
BBX 13 23 1 -6
BITMAP
7070
8888
8C88
9490
9290
EEE8
8988
9190
8890
9890
EB68
9450
9250
9230
9230
8928
F1F0
0000
0600
0900
0A00
1400
1800
ENDCHAR
STARTCHAR ncommaaccent
ENCODING 326
SWIDTH 598 0
DWIDTH 14 0
BBX 13 23 1 -6
BITMAP
7070
8888
8C88
9490
9290
EEE8
8988
9190
8890
9890
EB68
9450
9250
9230
9230
8928
F1F0
0000
0600
0900
0A00
1400
1800
ENDCHAR
STARTCHAR Ncaron
ENCODING 327
SWIDTH 598 0
DWIDTH 14 0
BBX 13 23 1 0
BITMAP
1DC0
1540
1240
0A80
0900
0700
7070
8888
8C88
9490
9290
EEE8
8988
9190
8890
9890
EB68
9450
9250
9230
9230
8928
F1F0
ENDCHAR
STARTCHAR ncaron
ENCODING 328
SWIDTH 598 0
DWIDTH 14 0
BBX 13 23 1 0
BITMAP
1DC0
1540
1240
0A80
0900
0700
7070
8888
8C88
9490
9290
EEE8
8988
9190
8890
9890
EB68
9450
9250
9230
9230
8928
F1F0
ENDCHAR
STARTCHAR napostrophe
ENCODING 329
SWIDTH 807 0
DWIDTH 19 0
BBX 19 17 0 0
BITMAP
31C1C0
2A2220
4A3220
925240
A24A40
43BBA0
022620
024640
022240
026240
03ADA0
025140
024940
0248C0
0248C0
0224A0
03C7C0
ENDCHAR
STARTCHAR Eng
ENCODING 330
SWIDTH 595 0
DWIDTH 14 0
BBX 13 23 1 -6
BITMAP
7020
88D0
8C88
9490
9290
EE90
89D0
91A8
8890
9890
EB50
9450
9248
9230
9210
8930
F1D0
00D0
0F28
7210
4220
43C0
3C00
ENDCHAR
STARTCHAR eng
ENCODING 331
SWIDTH 595 0
DWIDTH 14 0
BBX 13 23 1 -6
BITMAP
7020
88D0
8C88
9490
9290
EE90
89D0
91A8
8890
9890
EB50
9450
9248
9230
9210
8930
F1D0
00D0
0F28
7210
4220
43C0
3C00
ENDCHAR
STARTCHAR Omacron
ENCODING 332
SWIDTH 612 0
DWIDTH 15 0
BBX 14 21 0 -1
BITMAP
07E0
0820
07C0
3F00
21F8
2108
2908
37F8
3478
4C44
4448
4444
4444
747C
4844
49FC
8F04
8904
790C
4FF0
3000
ENDCHAR
STARTCHAR omacron
ENCODING 333
SWIDTH 612 0
DWIDTH 15 0
BBX 14 21 0 -1
BITMAP
07E0
0820
07C0
3F00
21F8
2108
2908
37F8
3478
4C44
4448
4444
4444
747C
4844
49FC
8F04
8904
790C
4FF0
3000
ENDCHAR
STARTCHAR Obreve
ENCODING 334
SWIDTH 612 0
DWIDTH 15 0
BBX 14 24 0 -1
BITMAP
0C60
1290
0AA0
0BE0
0A20
07C0
3F00
21F8
2108
2908
37F8
3478
4C44
4448
4444
4444
747C
4844
49FC
8F04
8904
790C
4FF0
3000
ENDCHAR
STARTCHAR obreve
ENCODING 335
SWIDTH 612 0
DWIDTH 15 0
BBX 14 24 0 -1
BITMAP
0C60
1290
0AA0
0BE0
0A20
07C0
3F00
21F8
2108
2908
37F8
3478
4C44
4448
4444
4444
747C
4844
49FC
8F04
8904
790C
4FF0
3000
ENDCHAR
STARTCHAR Ohungarumlaut
ENCODING 336
SWIDTH 612 0
DWIDTH 15 0
BBX 14 24 0 -1
BITMAP
01B8
0264
04C8
0590
0660
0000
3F00
21F8
2108
2908
37F8
3478
4C44
4448
4444
4444
747C
4844
49FC
8F04
8904
790C
4FF0
3000
ENDCHAR
STARTCHAR ohungarumlaut
ENCODING 337
SWIDTH 612 0
DWIDTH 15 0
BBX 14 24 0 -1
BITMAP
01B8
0264
04C8
0590
0660
0000
3F00
21F8
2108
2908
37F8
3478
4C44
4448
4444
4444
747C
4844
49FC
8F04
8904
790C
4FF0
3000
ENDCHAR
STARTCHAR OE
ENCODING 338
SWIDTH 831 0
DWIDTH 20 0
BBX 20 18 0 -1
BITMAP
3F3AE0
21F510
211510
291510
37F7E0
347400
4C4480
444740
444840
444440
747F80
484400
4AE700
8D1AE0
891610
791410
4FFBE0
300000
ENDCHAR
STARTCHAR oe
ENCODING 339
SWIDTH 831 0
DWIDTH 20 0
BBX 20 18 0 -1
BITMAP
3F3AE0
21F510
211510
291510
37F7E0
347400
4C4480
444740
444840
444440
747F80
484400
4AE700
8D1AE0
891610
791410
4FFBE0
300000
ENDCHAR
STARTCHAR Racute
ENCODING 340
SWIDTH 532 0
DWIDTH 13 0
BBX 12 22 1 0
BITMAP
0180
0240
0480
0500
0600
3800
C700
C1C0
F230
8C10
93A0
EA60
9420
9F40
9880
9480
FC40
8BC0
9220
9110
9110
F0E0
ENDCHAR
STARTCHAR racute
ENCODING 341
SWIDTH 532 0
DWIDTH 13 0
BBX 12 22 1 0
BITMAP
0180
0240
0480
0500
0600
3800
C700
C1C0
F230
8C10
93A0
EA60
9420
9F40
9880
9480
FC40
8BC0
9220
9110
9110
F0E0
ENDCHAR
STARTCHAR Rcommaaccent
ENCODING 342
SWIDTH 532 0
DWIDTH 13 0
BBX 12 23 1 -6
BITMAP
3800
C700
C1C0
F230
8C10
93A0
EA60
9420
9F40
9880
9480
FC40
8BC0
9220
9110
9110
90A0
6040
0E00
0A00
1400
2400
1800
ENDCHAR
STARTCHAR rcommaaccent
ENCODING 343
SWIDTH 532 0
DWIDTH 13 0
BBX 12 23 1 -6
BITMAP
3800
C700
C1C0
F230
8C10
93A0
EA60
9420
9F40
9880
9480
FC40
8BC0
9220
9110
9110
90A0
6040
0E00
0A00
1400
2400
1800
ENDCHAR
STARTCHAR Rcaron
ENCODING 344
SWIDTH 532 0
DWIDTH 13 0
BBX 12 24 1 0
BITMAP
3B80
2A40
1480
1300
0A00
0E00
0000
3800
C700
C1C0
F230
8C10
93A0
EA60
9420
9F40
9880
9480
FC40
8BC0
9220
9110
9110
F0E0
ENDCHAR
STARTCHAR rcaron
ENCODING 345
SWIDTH 532 0
DWIDTH 13 0
BBX 12 24 1 0
BITMAP
3B80
2A40
1480
1300
0A00
0E00
0000
3800
C700
C1C0
F230
8C10
93A0
EA60
9420
9F40
9880
9480
FC40
8BC0
9220
9110
9110
F0E0
ENDCHAR
STARTCHAR Sacute
ENCODING 346
SWIDTH 442 0
DWIDTH 11 0
BBX 11 23 0 0
BITMAP
0300
0480
0500
0A00
0C00
0000
0FC0
7420
7420
8BC0
4C00
4400
2A00
3200
1100
0900
0B80
0480
0440
7A20
8620
87C0
FC00
ENDCHAR
STARTCHAR sacute
ENCODING 347
SWIDTH 442 0
DWIDTH 11 0
BBX 11 23 0 0
BITMAP
0300
0480
0500
0A00
0C00
0000
0FC0
7420
7420
8BC0
4C00
4400
2A00
3200
1100
0900
0B80
0480
0440
7A20
8620
87C0
FC00
ENDCHAR
STARTCHAR Scircumflex
ENCODING 348
SWIDTH 442 0
DWIDTH 11 0
BBX 11 24 0 0
BITMAP
0E00
1200
1500
2480
2A80
3300
0000
0FC0
7420
7420
8BC0
4C00
4400
2A00
3200
1100
0900
0B80
0480
0440
7A20
8620
87C0
FC00
ENDCHAR
STARTCHAR scircumflex
ENCODING 349
SWIDTH 442 0
DWIDTH 11 0
BBX 11 24 0 0
BITMAP
0E00
1200
1500
2480
2A80
3300
0000
0FC0
7420
7420
8BC0
4C00
4400
2A00
3200
1100
0900
0B80
0480
0440
7A20
8620
87C0
FC00
ENDCHAR
STARTCHAR Scedilla
ENCODING 350
SWIDTH 442 0
DWIDTH 11 0
BBX 11 22 0 -5
BITMAP
0FC0
7420
7420
8BC0
4C00
4400
2A00
3200
1100
0900
0B80
0480
0440
7A20
8620
86C0
BD00
4500
0D00
3700
2200
1800
ENDCHAR
STARTCHAR scedilla
ENCODING 351
SWIDTH 442 0
DWIDTH 11 0
BBX 11 22 0 -5
BITMAP
0FC0
7420
7420
8BC0
4C00
4400
2A00
3200
1100
0900
0B80
0480
0440
7A20
8620
86C0
BD00
4500
0D00
3700
2200
1800
ENDCHAR
STARTCHAR Scaron
ENCODING 352
SWIDTH 442 0
DWIDTH 11 0
BBX 11 24 0 0
BITMAP
3B80
2A80
2500
1500
1200
0E00
0000
0FC0
7420
7420
8BC0
4C00
4400
2A00
3200
1100
0900
0B80
0480
0440
7A20
8620
87C0
FC00
ENDCHAR
STARTCHAR scaron
ENCODING 353
SWIDTH 442 0
DWIDTH 11 0
BBX 11 24 0 0
BITMAP
3B80
2A80
2500
1500
1200
0E00
0000
0FC0
7420
7420
8BC0
4C00
4400
2A00
3200
1100
0900
0B80
0480
0440
7A20
8620
87C0
FC00
ENDCHAR
STARTCHAR Tcommaaccent
ENCODING 354
SWIDTH 453 0
DWIDTH 11 0
BBX 11 23 0 -6
BITMAP
FFC0
8420
8420
ABE0
5500
1100
1F00
1100
1100
1100
1100
1F00
1100
1100
1100
1100
1E00
0000
0C00
1200
2400
2800
3000
ENDCHAR
STARTCHAR tcommaaccent
ENCODING 355
SWIDTH 453 0
DWIDTH 11 0
BBX 11 23 0 -6
BITMAP
FFC0
8420
8420
ABE0
5500
1100
1F00
1100
1100
1100
1100
1F00
1100
1100
1100
1100
1E00
0000
0C00
1200
2400
2800
3000
ENDCHAR
STARTCHAR Tcaron
ENCODING 356
SWIDTH 453 0
DWIDTH 11 0
BBX 11 24 0 0
BITMAP
3B80
2640
1480
1300
0A00
0E00
0000
FFC0
8420
8420
ABE0
5500
1100
1F00
1100
1100
1100
1100
1F00
1100
1100
1100
1100
1E00
ENDCHAR
STARTCHAR tcaron
ENCODING 357
SWIDTH 453 0
DWIDTH 11 0
BBX 11 24 0 0
BITMAP
3B80
2640
1480
1300
0A00
0E00
0000
FFC0
8420
8420
ABE0
5500
1100
1F00
1100
1100
1100
1100
1F00
1100
1100
1100
1100
1E00
ENDCHAR
STARTCHAR Tbar
ENCODING 358
SWIDTH 455 0
DWIDTH 11 0
BBX 11 17 0 0
BITMAP
7E40
85A0
8420
8020
7FC0
1100
1F00
3100
4F80
4040
4040
3F80
1100
1100
1100
1100
1F00
ENDCHAR
STARTCHAR tbar
ENCODING 359
SWIDTH 455 0
DWIDTH 11 0
BBX 11 17 0 0
BITMAP
7E40
85A0
8420
8020
7FC0
1100
1F00
3100
4F80
4040
4040
3F80
1100
1100
1100
1100
1F00
ENDCHAR
STARTCHAR Utilde
ENCODING 360
SWIDTH 583 0
DWIDTH 14 0
BBX 14 24 0 -1
BITMAP
0738
04A8
0950
1250
1520
0CE0
3870
2488
2488
2488
4488
7CF8
4488
4848
4848
4848
7478
4848
49F8
4E08
8918
7974
4FF8
3000
ENDCHAR
STARTCHAR utilde
ENCODING 361
SWIDTH 583 0
DWIDTH 14 0
BBX 14 24 0 -1
BITMAP
0738
04A8
0950
1250
1520
0CE0
3870
2488
2488
2488
4488
7CF8
4488
4848
4848
4848
7478
4848
49F8
4E08
8918
7974
4FF8
3000
ENDCHAR
STARTCHAR Umacron
ENCODING 362
SWIDTH 583 0
DWIDTH 14 0
BBX 14 22 0 -1
BITMAP
0FC0
0820
0FC0
0000
3870
2488
2488
2488
4488
7CF8
4488
4848
4848
4848
7478
4848
49F8
4E08
8918
7974
4FF8
3000
ENDCHAR
STARTCHAR umacron
ENCODING 363
SWIDTH 583 0
DWIDTH 14 0
BBX 14 22 0 -1
BITMAP
0FC0
0820
0FC0
0000
3870
2488
2488
2488
4488
7CF8
4488
4848
4848
4848
7478
4848
49F8
4E08
8918
7974
4FF8
3000
ENDCHAR
STARTCHAR Ubreve
ENCODING 364
SWIDTH 583 0
DWIDTH 14 0
BBX 14 25 0 -1
BITMAP
0C40
14A0
14A0
13C0
0A40
0780
0000
3870
2488
2488
2488
4488
7CF8
4488
4848
4848
4848
7478
4848
49F8
4E08
8918
7974
4FF8
3000
ENDCHAR
STARTCHAR ubreve
ENCODING 365
SWIDTH 583 0
DWIDTH 14 0
BBX 14 25 0 -1
BITMAP
0C40
14A0
14A0
13C0
0A40
0780
0000
3870
2488
2488
2488
4488
7CF8
4488
4848
4848
4848
7478
4848
49F8
4E08
8918
7974
4FF8
3000
ENDCHAR
STARTCHAR Uring
ENCODING 366
SWIDTH 583 0
DWIDTH 14 0
BBX 14 25 0 -1
BITMAP
0780
0540
0940
1320
0CC0
0840
0FC0
3870
2488
2488
2488
4488
7CF8
4488
4848
4848
4848
7478
4848
49F8
4E08
8918
7974
4FF8
3000
ENDCHAR
STARTCHAR uring
ENCODING 367
SWIDTH 583 0
DWIDTH 14 0
BBX 14 25 0 -1
BITMAP
0780
0540
0940
1320
0CC0
0840
0FC0
3870
2488
2488
2488
4488
7CF8
4488
4848
4848
4848
7478
4848
49F8
4E08
8918
7974
4FF8
3000
ENDCHAR
STARTCHAR Uhungarumlaut
ENCODING 368
SWIDTH 583 0
DWIDTH 14 0
BBX 14 24 0 -1
BITMAP
0330
04C8
0590
0AA0
0CC0
0000
3870
2488
2488
2488
4488
7CF8
4488
4848
4848
4848
7478
4848
49F8
4E08
8918
7974
4FF8
3000
ENDCHAR
STARTCHAR uhungarumlaut
ENCODING 369
SWIDTH 583 0
DWIDTH 14 0
BBX 14 24 0 -1
BITMAP
0330
04C8
0590
0AA0
0CC0
0000
3870
2488
2488
2488
4488
7CF8
4488
4848
4848
4848
7478
4848
49F8
4E08
8918
7974
4FF8
3000
ENDCHAR
STARTCHAR Uogonek
ENCODING 370
SWIDTH 583 0
DWIDTH 14 0
BBX 14 23 0 -6
BITMAP
3870
2488
2488
2488
4488
7CF8
4488
4848
4848
4848
7478
4848
49F8
4E08
8918
7974
4FF8
3050
0090
00B0
004C
0024
0018
ENDCHAR
STARTCHAR uogonek
ENCODING 371
SWIDTH 583 0
DWIDTH 14 0
BBX 14 23 0 -6
BITMAP
3870
2488
2488
2488
4488
7CF8
4488
4848
4848
4848
7478
4848
49F8
4E08
8918
7974
4FF8
3050
0090
00B0
004C
0024
0018
ENDCHAR
STARTCHAR Wcircumflex
ENCODING 372
SWIDTH 735 0
DWIDTH 18 0
BBX 17 22 0 0
BITMAP
01C000
012000
026000
049000
054800
033200
700580
91E480
892480
492480
4B9C80
7AFB80
469900
468900
244900
27F900
3C5700
24D200
14D200
18D200
18A200
1F1E00
ENDCHAR
STARTCHAR wcircumflex
ENCODING 373
SWIDTH 735 0
DWIDTH 18 0
BBX 17 22 0 0
BITMAP
01C000
012000
026000
049000
054800
033200
700580
91E480
892480
492480
4B9C80
7AFB80
469900
468900
244900
27F900
3C5700
24D200
14D200
18D200
18A200
1F1E00
ENDCHAR
STARTCHAR Ycircumflex
ENCODING 374
SWIDTH 484 0
DWIDTH 12 0
BBX 13 23 -1 0
BITMAP
0700
0480
0980
1240
1520
0CC0
0020
7058
8848
8488
4290
2790
1950
1220
0A40
0440
0740
0440
0880
0900
1100
1900
0600
ENDCHAR
STARTCHAR ycircumflex
ENCODING 375
SWIDTH 484 0
DWIDTH 12 0
BBX 13 23 -1 0
BITMAP
0700
0480
0980
1240
1520
0CC0
0020
7058
8848
8488
4290
2790
1950
1220
0A40
0440
0740
0440
0880
0900
1100
1900
0600
ENDCHAR
STARTCHAR Ydieresis
ENCODING 376
SWIDTH 484 0
DWIDTH 12 0
BBX 13 21 -1 0
BITMAP
0CC0
1320
1520
1CC0
0020
7058
8848
8488
4290
2790
1950
1220
0A40
0440
0740
0440
0880
0900
1100
1900
0600
ENDCHAR
STARTCHAR Zacute
ENCODING 377
SWIDTH 458 0
DWIDTH 11 0
BBX 11 22 0 0
BITMAP
0380
0280
0480
0900
0600
3FC0
4440
4420
4160
3EC0
0440
0B80
0880
1100
2200
3A00
2600
44C0
8F40
8C40
9440
7FC0
ENDCHAR
STARTCHAR zacute
ENCODING 378
SWIDTH 458 0
DWIDTH 11 0
BBX 11 22 0 0
BITMAP
0380
0280
0480
0900
0600
3FC0
4440
4420
4160
3EC0
0440
0B80
0880
1100
2200
3A00
2600
44C0
8F40
8C40
9440
7FC0
ENDCHAR
STARTCHAR Zdotaccent
ENCODING 379
SWIDTH 458 0
DWIDTH 11 0
BBX 11 22 0 0
BITMAP
0600
0900
0A00
0E00
0000
3FC0
4440
4420
4160
3EC0
0440
0B80
0880
1100
2200
3A00
2600
44C0
8F40
8C40
9440
7FC0
ENDCHAR
STARTCHAR zdotaccent
ENCODING 380
SWIDTH 458 0
DWIDTH 11 0
BBX 11 22 0 0
BITMAP
0600
0900
0A00
0E00
0000
3FC0
4440
4420
4160
3EC0
0440
0B80
0880
1100
2200
3A00
2600
44C0
8F40
8C40
9440
7FC0
ENDCHAR
STARTCHAR Zcaron
ENCODING 381
SWIDTH 458 0
DWIDTH 11 0
BBX 11 23 0 0
BITMAP
3B80
2A40
1480
1300
0A00
0E00
3FC0
4440
4420
4160
3EC0
0440
0B80
0880
1100
2200
3A00
2600
44C0
8F40
8C40
9440
7FC0
ENDCHAR
STARTCHAR zcaron
ENCODING 382
SWIDTH 458 0
DWIDTH 11 0
BBX 11 23 0 0
BITMAP
3B80
2A40
1480
1300
0A00
0E00
3FC0
4440
4420
4160
3EC0
0440
0B80
0880
1100
2200
3A00
2600
44C0
8F40
8C40
9440
7FC0
ENDCHAR
STARTCHAR AEacute
ENCODING 508
SWIDTH 797 0
DWIDTH 19 0
BBX 20 23 -1 0
BITMAP
000C00
001200
001400
002800
003000
000000
003BE0
01C510
012510
022510
0247F0
067C00
054400
08C7C0
094440
114440
1AFF80
264400
244720
47C5D0
884510
484410
383BE0
ENDCHAR
STARTCHAR aeacute
ENCODING 509
SWIDTH 797 0
DWIDTH 19 0
BBX 20 23 -1 0
BITMAP
000C00
001200
001400
002800
003000
000000
003BE0
01C510
012510
022510
0247F0
067C00
054400
08C7C0
094440
114440
1AFF80
264400
244720
47C5D0
884510
484410
383BE0
ENDCHAR
STARTCHAR Oslashacute
ENCODING 510
SWIDTH 612 0
DWIDTH 15 0
BBX 14 23 0 -1
BITMAP
00E0
00A0
0120
0240
0180
3F30
21C8
2144
2948
3788
3598
4D64
4628
4444
44C4
7CFC
4B44
51FC
9304
A504
450C
47F0
3800
ENDCHAR
STARTCHAR oslashacute
ENCODING 511
SWIDTH 612 0
DWIDTH 15 0
BBX 14 23 0 -1
BITMAP
00E0
00A0
0120
0240
0180
3F30
21C8
2144
2948
3788
3598
4D64
4628
4444
44C4
7CFC
4B44
51FC
9304
A504
450C
47F0
3800
ENDCHAR
STARTCHAR dotlessj
ENCODING 567
SWIDTH 482 0
DWIDTH 12 0
BBX 11 18 0 -1
BITMAP
01C0
0220
0220
0120
0220
03E0
0220
0220
6220
9220
93E0
8E20
4E20
3220
2120
10A0
09C0
0600
ENDCHAR
STARTCHAR circumflex
ENCODING 710
SWIDTH 308 0
DWIDTH 7 0
BBX 7 6 0 18
BITMAP
38
2C
4C
92
AA
66
ENDCHAR
STARTCHAR caron
ENCODING 711
SWIDTH 310 0
DWIDTH 7 0
BBX 7 6 0 18
BITMAP
EE
AA
52
4C
28
38
ENDCHAR
STARTCHAR breve
ENCODING 728
SWIDTH 333 0
DWIDTH 8 0
BBX 8 6 0 18
BITMAP
66
A5
A5
9E
52
3C
ENDCHAR
STARTCHAR dotaccent
ENCODING 729
SWIDTH 166 0
DWIDTH 4 0
BBX 4 4 0 18
BITMAP
60
90
90
70
ENDCHAR
STARTCHAR ring
ENCODING 730
SWIDTH 309 0
DWIDTH 7 0
BBX 7 7 0 18
BITMAP
3C
4C
52
AA
76
82
7C
ENDCHAR
STARTCHAR ogonek
ENCODING 731
SWIDTH 226 0
DWIDTH 5 0
BBX 5 8 0 -6
BITMAP
60
50
50
A0
B0
48
28
10
ENDCHAR
STARTCHAR tilde
ENCODING 732
SWIDTH 410 0
DWIDTH 10 0
BBX 10 6 0 18
BITMAP
3980
2E40
4E80
9280
A900
6700
ENDCHAR
STARTCHAR hungarumlaut
ENCODING 733
SWIDTH 361 0
DWIDTH 9 0
BBX 9 5 0 18
BITMAP
3300
4C80
5500
AA00
4C00
ENDCHAR
STARTCHAR uni0312
ENCODING 786
SWIDTH 202 0
DWIDTH 5 0
BBX 5 5 0 12
BITMAP
30
28
48
90
E0
ENDCHAR
STARTCHAR uni0315
ENCODING 789
SWIDTH 202 0
DWIDTH 5 0
BBX 5 5 0 12
BITMAP
30
28
48
90
E0
ENDCHAR
STARTCHAR uni0326
ENCODING 806
SWIDTH 201 0
DWIDTH 5 0
BBX 5 5 0 -6
BITMAP
30
48
50
A0
E0
ENDCHAR
STARTCHAR Wgrave
ENCODING 7808
SWIDTH 735 0
DWIDTH 18 0
BBX 17 21 0 0
BITMAP
038000
028000
024000
014000
00C200
700580
91E480
892480
492480
4B9C80
7AFB80
469900
468900
244900
27F900
3C5700
24D200
14D200
18D200
18A200
1F1E00
ENDCHAR
STARTCHAR wgrave
ENCODING 7809
SWIDTH 735 0
DWIDTH 18 0
BBX 17 21 0 0
BITMAP
038000
028000
024000
014000
00C200
700580
91E480
892480
492480
4B9C80
7AFB80
469900
468900
244900
27F900
3C5700
24D200
14D200
18D200
18A200
1F1E00
ENDCHAR
STARTCHAR Wacute
ENCODING 7810
SWIDTH 735 0
DWIDTH 18 0
BBX 17 21 0 0
BITMAP
003000
004800
005000
00A000
00C200
700580
91E480
892480
492480
4B9C80
7AFB80
469900
468900
244900
27F900
3C5700
24D200
14D200
18D200
18A200
1F1E00
ENDCHAR
STARTCHAR wacute
ENCODING 7811
SWIDTH 735 0
DWIDTH 18 0
BBX 17 21 0 0
BITMAP
003000
004800
005000
00A000
00C200
700580
91E480
892480
492480
4B9C80
7AFB80
469900
468900
244900
27F900
3C5700
24D200
14D200
18D200
18A200
1F1E00
ENDCHAR
STARTCHAR Wdieresis
ENCODING 7812
SWIDTH 735 0
DWIDTH 18 0
BBX 17 20 0 0
BITMAP
033000
04C800
054800
073200
700580
91E480
892480
492480
4B9C80
7AFB80
469900
468900
244900
27F900
3C5700
24D200
14D200
18D200
18A200
1F1E00
ENDCHAR
STARTCHAR wdieresis
ENCODING 7813
SWIDTH 735 0
DWIDTH 18 0
BBX 17 20 0 0
BITMAP
033000
04C800
054800
073200
700580
91E480
892480
492480
4B9C80
7AFB80
469900
468900
244900
27F900
3C5700
24D200
14D200
18D200
18A200
1F1E00
ENDCHAR
STARTCHAR Ygrave
ENCODING 7922
SWIDTH 484 0
DWIDTH 12 0
BBX 13 22 -1 0
BITMAP
0E00
0A00
0900
0500
0300
0020
7058
8848
8488
4290
2790
1950
1220
0A40
0440
0740
0440
0880
0900
1100
1900
0600
ENDCHAR
STARTCHAR ygrave
ENCODING 7923
SWIDTH 484 0
DWIDTH 12 0
BBX 13 22 -1 0
BITMAP
0E00
0A00
0900
0500
0300
0020
7058
8848
8488
4290
2790
1950
1220
0A40
0440
0740
0440
0880
0900
1100
1900
0600
ENDCHAR
STARTCHAR endash
ENCODING 8211
SWIDTH 591 0
DWIDTH 14 0
BBX 13 4 1 6
BITMAP
FFF0
8888
8888
FFF0
ENDCHAR
STARTCHAR emdash
ENCODING 8212
SWIDTH 726 0
DWIDTH 17 0
BBX 16 4 1 6
BITMAP
FFFE
8421
8421
FFFF
ENDCHAR
STARTCHAR quoteleft
ENCODING 8216
SWIDTH 291 0
DWIDTH 7 0
BBX 7 10 0 8
BITMAP
18
16
22
24
74
4C
48
88
88
70
ENDCHAR
STARTCHAR quoteright
ENCODING 8217
SWIDTH 291 0
DWIDTH 7 0
BBX 7 10 0 8
BITMAP
18
16
22
24
74
4C
48
88
88
70
ENDCHAR
STARTCHAR quotesinglbase
ENCODING 8218
SWIDTH 228 0
DWIDTH 5 0
BBX 6 6 -1 -3
BITMAP
18
24
44
88
90
70
ENDCHAR
STARTCHAR quotedblleft
ENCODING 8220
SWIDTH 532 0
DWIDTH 13 0
BBX 13 10 0 8
BITMAP
1860
1690
2288
2490
75D0
4D10
4920
8A20
8A40
71C0
ENDCHAR
STARTCHAR quotedblright
ENCODING 8221
SWIDTH 532 0
DWIDTH 13 0
BBX 13 10 0 8
BITMAP
1860
1690
2288
2490
75D0
4D10
4920
8A20
8A40
71C0
ENDCHAR
STARTCHAR quotedblbase
ENCODING 8222
SWIDTH 448 0
DWIDTH 11 0
BBX 11 6 -1 -3
BITMAP
18E0
2520
4520
8A40
9240
7380
ENDCHAR
STARTCHAR dagger
ENCODING 8224
SWIDTH 453 0
DWIDTH 11 0
BBX 10 19 0 -1
BITMAP
0F00
1100
1100
69C0
9140
9140
9F40
71C0
1100
1100
1100
1D00
1300
1100
1200
1100
1100
1100
1E00
ENDCHAR
STARTCHAR daggerdbl
ENCODING 8225
SWIDTH 462 0
DWIDTH 11 0
BBX 10 19 1 -1
BITMAP
1E00
2200
1200
F380
9240
A240
BE40
E380
2200
2200
2200
3A00
E780
A240
A240
E380
2200
2200
1C00
ENDCHAR
STARTCHAR bullet
ENCODING 8226
SWIDTH 275 0
DWIDTH 7 0
BBX 4 4 1 7
BITMAP
60
90
90
70
ENDCHAR
STARTCHAR ellipsis
ENCODING 8230
SWIDTH 605 0
DWIDTH 15 0
BBX 14 4 0 0
BITMAP
6318
94A4
54A4
F7BC
ENDCHAR
STARTCHAR perthousand
ENCODING 8240
SWIDTH 1249 0
DWIDTH 30 0
BBX 28 17 1 0
BITMAP
78000000
C4300000
A2480000
BD480000
AA500000
AA500000
F9B00000
89940200
8E9BE5E0
74AE3B10
01E9F9F0
012A9550
012A9950
012B9B50
024C9CD0
01489C50
0087E3E0
ENDCHAR
STARTCHAR guilsinglleft
ENCODING 8249
SWIDTH 359 0
DWIDTH 9 0
BBX 7 11 1 3
BITMAP
0C
12
62
86
88
90
E8
84
62
12
0C
ENDCHAR
STARTCHAR guilsinglright
ENCODING 8250
SWIDTH 359 0
DWIDTH 9 0
BBX 7 11 1 3
BITMAP
60
90
88
C6
22
12
2E
C6
88
90
60
ENDCHAR
STARTCHAR fraction
ENCODING 8260
SWIDTH 266 0
DWIDTH 6 0
BBX 7 15 0 1
BITMAP
1C
12
14
24
24
38
28
48
48
68
58
50
90
90
F0
ENDCHAR
STARTCHAR Euro
ENCODING 8364
SWIDTH 690 0
DWIDTH 17 0
BBX 16 18 0 -1
BITMAP
03F0
042F
0421
05A1
167E
2F40
2440
2480
1C80
7880
8F80
8880
793E
08E1
1121
0F2F
05F0
0200
ENDCHAR
STARTCHAR partialdiff
ENCODING 8706
SWIDTH 519 0
DWIDTH 12 0
BBX 13 18 0 -1
BITMAP
0380
0480
0480
0480
0440
03C0
0640
0A40
1220
3120
CAE0
9520
AD10
4310
4090
3888
04F0
0300
ENDCHAR
STARTCHAR minus
ENCODING 8722
SWIDTH 467 0
DWIDTH 11 0
BBX 10 4 1 6
BITMAP
BF80
8440
8440
F780
ENDCHAR
STARTCHAR fi
ENCODING 64257
SWIDTH 741 0
DWIDTH 18 0
BBX 16 17 1 0
BITMAP
75CE
8A31
8A29
9229
9FC9
E81F
8811
9711
9089
9091
EF1F
9011
9011
9011
9011
8811
F00E
ENDCHAR
STARTCHAR fl
ENCODING 64258
SWIDTH 942 0
DWIDTH 23 0
BBX 22 17 1 0
BITMAP
75CE00
8A3100
8A2900
922900
9FC900
E81F00
881100
971100
908900
909100
EF1F00
901100
901180
9011FC
901184
881184
F00FFC
ENDCHAR
STARTCHAR .notdef
ENCODING -1
SWIDTH 200 0
DWIDTH 5 0
BBX 1 1 0 0
BITMAP
00
ENDCHAR
STARTCHAR .null
ENCODING -1
SWIDTH 0 0
DWIDTH 0 0
BBX 1 1 0 0
BITMAP
00
ENDCHAR
STARTCHAR nonmarkingreturn
ENCODING -1
SWIDTH 200 0
DWIDTH 5 0
BBX 1 1 0 0
BITMAP
00
ENDCHAR
ENDFONT
